<?xml version="1.0" encoding="utf-8"?>
<!-- Generator: Adobe Illustrator 16.0.4, SVG Export Plug-In . SVG Version: 6.00 Build 0)  -->
<!DOCTYPE svg PUBLIC "-//W3C//DTD SVG 1.1//EN" "http://www.w3.org/Graphics/SVG/1.1/DTD/svg11.dtd">
<svg version="1.1" id="Layer_1" xmlns="http://www.w3.org/2000/svg" xmlns:xlink="http://www.w3.org/1999/xlink" x="0px" y="0px"
	 width="800px" height="150px" viewBox="0 0 800 150" enable-background="new 0 0 800 150" xml:space="preserve">
<g>
	<g>
		<g>
			<path fill="#FBB03B" d="M38.002,76.943l28.794,62.554H56.351L47,119.084H20.793l-9.655,20.413H6l29.456-62.554H38.002z
				 M22.594,115.133h22.518L34.007,90.946L22.594,115.133z"/>
			<path fill="#FBB03B" d="M74.699,78.348h21.157c3.688,0,6.913,0.395,9.681,1.186c2.766,0.79,5.07,1.895,6.914,3.314
				c1.843,1.419,3.233,3.101,4.169,5.048c0.938,1.946,1.403,4.075,1.403,6.388c0,1.9-0.357,3.679-1.074,5.332
				c-0.715,1.655-1.733,3.147-3.051,4.477c-1.316,1.332-2.898,2.488-4.739,3.471c-1.845,0.979-3.878,1.732-6.101,2.261
				l22.254,29.674h-11.897l-21.244-28.753H84.97v28.753H74.699V78.348z M84.97,107.672h5.927c2.312,0,4.441-0.309,6.387-0.922
				c1.946-0.614,3.638-1.485,5.07-2.613c1.434-1.125,2.553-2.493,3.356-4.104c0.808-1.606,1.21-3.41,1.21-5.398
				c0-1.815-0.322-3.489-0.966-5.027c-0.645-1.535-1.536-2.853-2.68-3.951c-1.14-1.096-2.5-1.951-4.082-2.567
				c-1.579-0.614-3.306-0.92-5.179-0.92H84.97V107.672z"/>
			<path fill="#FBB03B" d="M181.632,78.348v3.95h-22.124v57.199h-10.271V82.298h-22.171v-3.95H181.632z"/>
			<path fill="#FBB03B" d="M207.794,137.037c1.522,0,3.021-0.204,4.5-0.612c1.476-0.412,2.795-1.026,3.95-1.846
				c1.156-0.819,2.084-1.822,2.788-3.006c0.7-1.186,1.054-2.555,1.054-4.105c0-1.871-0.483-3.533-1.448-4.981
				c-0.969-1.448-2.233-2.787-3.797-4.018c-1.567-1.228-3.359-2.376-5.379-3.445c-2.019-1.066-4.075-2.145-6.166-3.227
				c-2.095-1.083-4.15-2.216-6.169-3.401c-2.02-1.187-3.812-2.502-5.378-3.951c-1.564-1.448-2.829-3.073-3.796-4.873
				c-0.965-1.799-1.45-3.869-1.45-6.213c0-2.339,0.44-4.514,1.318-6.516c0.878-2.005,2.165-3.739,3.861-5.202
				c1.697-1.463,3.784-2.614,6.255-3.447c2.475-0.834,5.321-1.25,8.541-1.25c5.793,0,10.364,1.214,13.717,3.643
				c3.351,2.43,5.771,5.94,7.264,10.535l-5.27,2.416c-0.612-1.874-1.396-3.586-2.346-5.137c-0.95-1.551-2.094-2.883-3.425-3.995
				c-1.33-1.11-2.86-1.969-4.586-2.567c-1.728-0.601-3.673-0.899-5.838-0.899c-1.933,0-3.623,0.271-5.072,0.812
				c-1.448,0.54-2.647,1.244-3.6,2.107c-0.949,0.862-1.665,1.843-2.148,2.941c-0.484,1.097-0.725,2.218-0.725,3.358
				c0,1.609,0.496,3.08,1.493,4.409c0.992,1.332,2.295,2.598,3.906,3.797c1.607,1.201,3.452,2.349,5.53,3.447
				s4.191,2.217,6.344,3.358c2.15,1.143,4.265,2.326,6.343,3.556c2.077,1.229,3.92,2.574,5.531,4.038
				c1.608,1.463,2.91,3.065,3.906,4.808c0.994,1.741,1.494,3.68,1.494,5.816c0,2.428-0.465,4.703-1.385,6.825
				c-0.922,2.123-2.307,3.98-4.148,5.573c-1.844,1.597-4.133,2.856-6.869,3.776c-2.736,0.923-5.919,1.384-9.547,1.384
				c-2.926,0-5.547-0.322-7.858-0.965c-2.312-0.646-4.354-1.582-6.124-2.812c-1.771-1.228-3.283-2.735-4.544-4.521
				c-1.258-1.785-2.296-3.804-3.115-6.057l5.531-2.282c0.643,1.99,1.506,3.773,2.588,5.354c1.083,1.58,2.349,2.919,3.797,4.018
				c1.45,1.095,3.06,1.93,4.83,2.503C203.925,136.754,205.804,137.037,207.794,137.037z"/>
			<path fill="#FBB03B" d="M316.089,106.529c-0.382,2.166-0.843,4.112-1.385,5.838c-0.54,1.728-1.192,3.359-1.953,4.895
				c-0.759,1.537-1.64,3.022-2.633,4.456c-0.996,1.436-2.124,2.956-3.381,4.565c2.372,2.371,4.609,4.251,6.715,5.64
				c2.108,1.392,4.04,2.086,5.795,2.086c2.283,0,4.252-0.446,5.904-1.337c1.655-0.895,2.979-2.482,3.976-4.764l1.709,0.612
				c-0.408,1.992-1.068,3.762-1.975,5.312c-0.908,1.552-2.019,2.854-3.336,3.905c-1.317,1.055-2.816,1.853-4.501,2.395
				c-1.682,0.543-3.502,0.812-5.464,0.812c-2.545,0-5.143-0.724-7.792-2.173c-2.646-1.45-5.261-3.357-7.835-5.73
				c-1.492,1.172-3.059,2.24-4.697,3.206s-3.353,1.799-5.136,2.503c-1.785,0.701-3.636,1.242-5.554,1.624
				c-1.916,0.38-3.897,0.57-5.948,0.57c-2.865,0-5.318-0.33-7.354-0.989c-2.032-0.658-3.693-1.572-4.98-2.742
				c-1.287-1.171-2.232-2.567-2.831-4.192c-0.601-1.624-0.9-3.417-0.9-5.379c0-2.808,0.527-5.296,1.58-7.461
				c1.054-2.167,2.444-4.104,4.171-5.817c1.728-1.711,3.702-3.239,5.927-4.586c2.222-1.346,4.506-2.591,6.845-3.731
				c-1.285-2.721-2.304-5.216-3.048-7.483c-0.749-2.271-1.119-4.179-1.119-5.73c0-2.019,0.326-3.979,0.986-5.881
				c0.659-1.902,1.655-3.601,2.984-5.093c1.332-1.493,2.994-2.687,4.982-3.576c1.99-0.894,4.317-1.34,6.979-1.34
				c1.962,0,3.812,0.285,5.554,0.855c1.743,0.572,3.257,1.406,4.544,2.503c1.288,1.098,2.305,2.435,3.05,4.015
				c0.749,1.582,1.12,3.366,1.12,5.356c0,2.021-0.476,3.783-1.426,5.29c-0.951,1.508-2.196,2.86-3.731,4.061
				c-1.538,1.199-3.286,2.291-5.246,3.271c-1.96,0.98-3.937,1.938-5.927,2.875c1.611,3.015,3.543,6.036,5.796,9.064
				c2.252,3.028,4.697,5.962,7.331,8.802c1.521-1.697,2.844-3.344,3.973-4.938c1.127-1.596,2.084-3.117,2.875-4.565
				s1.426-2.817,1.909-4.104s0.843-2.473,1.075-3.557L316.089,106.529z M282.638,109.119c-1.55,0.908-2.985,1.896-4.301,2.964
				c-1.318,1.068-2.452,2.217-3.401,3.445c-0.953,1.229-1.699,2.523-2.24,3.886c-0.542,1.359-0.812,2.758-0.812,4.191
				c0,1.669,0.263,3.227,0.789,4.675c0.526,1.45,1.295,2.707,2.305,3.776c1.01,1.067,2.225,1.9,3.646,2.501
				c1.417,0.6,3.035,0.901,4.851,0.901c2.428,0,4.739-0.535,6.935-1.604c2.193-1.068,4.288-2.392,6.276-3.972
				c-1.405-1.492-2.745-3.08-4.016-4.763c-1.273-1.683-2.489-3.417-3.644-5.203c-1.156-1.786-2.268-3.584-3.336-5.399
				C284.619,112.705,283.604,110.905,282.638,109.119z M289.31,102.359c1.582-0.819,3.067-1.668,4.456-2.547
				c1.39-0.879,2.59-1.836,3.599-2.873c1.01-1.041,1.809-2.182,2.394-3.425c0.586-1.243,0.877-2.613,0.877-4.104
				c0-1.492-0.189-2.816-0.569-3.973c-0.38-1.155-0.9-2.143-1.56-2.964c-0.658-0.818-1.434-1.441-2.324-1.865
				c-0.896-0.426-1.838-0.637-2.833-0.637c-1.11,0-2.145,0.293-3.095,0.877c-0.95,0.586-1.777,1.348-2.48,2.285
				c-0.703,0.935-1.251,1.981-1.646,3.137c-0.395,1.156-0.593,2.292-0.593,3.402c0,1.844,0.337,3.877,1.013,6.104
				C287.217,97.999,288.141,100.193,289.31,102.359z"/>
			<path fill="#FBB03B" d="M381.978,137.037c1.52,0,3.02-0.204,4.497-0.612c1.479-0.412,2.795-1.026,3.951-1.846
				s2.088-1.822,2.788-3.006c0.703-1.186,1.053-2.555,1.053-4.105c0-1.871-0.483-3.533-1.448-4.981
				c-0.964-1.448-2.229-2.787-3.797-4.018c-1.565-1.228-3.358-2.376-5.379-3.445c-2.019-1.066-4.073-2.145-6.165-3.227
				c-2.092-1.083-4.149-2.216-6.168-3.401c-2.019-1.187-3.812-2.502-5.377-3.951c-1.565-1.448-2.832-3.073-3.797-4.873
				c-0.968-1.799-1.448-3.869-1.448-6.213c0-2.339,0.438-4.514,1.314-6.516c0.881-2.005,2.166-3.739,3.865-5.202
				c1.697-1.463,3.78-2.614,6.255-3.447c2.472-0.834,5.318-1.25,8.536-1.25c5.796,0,10.37,1.214,13.718,3.643
				c3.352,2.43,5.771,5.94,7.265,10.535l-5.266,2.416c-0.615-1.874-1.398-3.586-2.349-5.137c-0.952-1.551-2.092-2.883-3.425-3.995
				c-1.332-1.11-2.859-1.969-4.586-2.567c-1.727-0.601-3.675-0.899-5.84-0.899c-1.93,0-3.621,0.271-5.069,0.812
				c-1.448,0.54-2.647,1.244-3.599,2.107c-0.952,0.862-1.67,1.843-2.152,2.941c-0.483,1.097-0.724,2.218-0.724,3.358
				c0,1.609,0.495,3.08,1.492,4.409c0.995,1.332,2.296,2.598,3.906,3.797c1.611,1.201,3.454,2.349,5.53,3.447
				c2.08,1.099,4.193,2.217,6.344,3.358c2.152,1.143,4.266,2.326,6.344,3.556c2.076,1.229,3.922,2.574,5.531,4.038
				c1.611,1.463,2.912,3.065,3.906,4.808c0.996,1.741,1.492,3.68,1.492,5.816c0,2.428-0.459,4.703-1.381,6.825
				c-0.924,2.123-2.305,3.98-4.15,5.573c-1.842,1.597-4.134,2.856-6.869,3.776c-2.735,0.923-5.918,1.384-9.547,1.384
				c-2.928,0-5.547-0.322-7.858-0.965c-2.312-0.646-4.354-1.582-6.125-2.812c-1.769-1.228-3.284-2.735-4.541-4.521
				c-1.258-1.785-2.3-3.804-3.117-6.057l5.53-2.282c0.645,1.99,1.508,3.773,2.592,5.354c1.084,1.58,2.349,2.919,3.797,4.018
				c1.447,1.095,3.058,1.93,4.827,2.503C378.106,136.754,379.987,137.037,381.978,137.037z"/>
			<path fill="#FBB03B" d="M424.162,109.119c0,4.301,0.642,8.15,1.931,11.545c1.287,3.396,3.056,6.27,5.31,8.626
				c2.255,2.355,4.926,4.155,8.013,5.4c3.089,1.241,6.432,1.863,10.03,1.863c2.137,0,4.201-0.415,6.189-1.25
				c1.99-0.834,3.843-1.916,5.554-3.247c1.711-1.334,3.241-2.839,4.587-4.523c1.346-1.681,2.459-3.387,3.336-5.111l4.303,2.763
				c-1.259,2.051-2.744,4.025-4.455,5.928c-1.715,1.902-3.696,3.578-5.95,5.026c-2.253,1.448-4.797,2.612-7.637,3.487
				c-2.838,0.88-6.014,1.319-9.525,1.319c-3.366,0-6.541-0.388-9.526-1.165c-2.985-0.773-5.729-1.855-8.23-3.247
				c-2.502-1.391-4.74-3.064-6.716-5.024c-1.975-1.962-3.644-4.122-5.005-6.476c-1.361-2.356-2.406-4.882-3.14-7.573
				c-0.731-2.693-1.095-5.472-1.095-8.341s0.37-5.656,1.119-8.362c0.744-2.706,1.813-5.253,3.204-7.639
				c1.39-2.384,3.095-4.573,5.114-6.562c2.018-1.991,4.294-3.695,6.824-5.112c2.531-1.421,5.306-2.526,8.318-3.315
				c3.014-0.791,6.233-1.186,9.66-1.186c3.246,0,6.238,0.438,8.976,1.316c2.735,0.878,5.237,2.042,7.505,3.49
				c2.268,1.447,4.279,3.124,6.038,5.024c1.754,1.904,3.262,3.879,4.521,5.93l-4.434,2.983c-2.577-4.945-5.443-8.575-8.604-10.887
				c-3.162-2.312-6.79-3.468-10.888-3.468c-3.541,0-6.848,0.645-9.919,1.93c-3.075,1.289-5.754,3.134-8.033,5.533
				c-2.281,2.397-4.085,5.312-5.398,8.734C424.818,100.954,424.162,104.818,424.162,109.119z"/>
			<path fill="#FBB03B" d="M486.143,78.348h10.271v61.149h-10.271V78.348z"/>
			<path fill="#FBB03B" d="M554.271,78.348v3.95h-32.221v21.861h21.555v3.95h-21.555v27.436h32.221v3.952h-42.492V78.348H554.271z"
				/>
			<path fill="#FBB03B" d="M565.685,78.348h5.751l40.077,44.688h0.396V78.348h4.521v62.598h-2.371L570.645,91.21h-0.353v48.287
				h-4.607V78.348z"/>
			<path fill="#FBB03B" d="M641.188,109.119c0,4.301,0.643,8.15,1.931,11.545c1.287,3.396,3.059,6.27,5.312,8.626
				c2.253,2.355,4.924,4.155,8.012,5.4c3.085,1.241,6.431,1.863,10.031,1.863c2.135,0,4.199-0.415,6.188-1.25
				c1.991-0.834,3.839-1.916,5.553-3.247c1.711-1.334,3.241-2.839,4.586-4.523c1.346-1.681,2.46-3.387,3.338-5.111l4.302,2.763
				c-1.259,2.051-2.744,4.025-4.455,5.928c-1.713,1.902-3.694,3.578-5.948,5.026c-2.255,1.448-4.8,2.612-7.639,3.487
				c-2.839,0.88-6.014,1.319-9.525,1.319c-3.366,0-6.54-0.388-9.526-1.165c-2.983-0.773-5.729-1.855-8.229-3.247
				c-2.502-1.391-4.744-3.064-6.718-5.024c-1.975-1.962-3.644-4.122-5.005-6.476c-1.359-2.356-2.406-4.882-3.138-7.573
				c-0.731-2.693-1.099-5.472-1.099-8.341s0.375-5.656,1.119-8.362c0.748-2.706,1.815-5.253,3.207-7.639
				c1.389-2.384,3.092-4.573,5.113-6.562c2.018-1.991,4.293-3.695,6.824-5.112c2.533-1.421,5.303-2.526,8.319-3.315
				c3.015-0.791,6.234-1.186,9.656-1.186c3.249,0,6.243,0.438,8.977,1.316c2.737,0.878,5.239,2.042,7.509,3.49
				c2.268,1.447,4.278,3.124,6.034,5.024c1.758,1.904,3.264,3.879,4.522,5.93l-4.434,2.983c-2.576-4.945-5.443-8.575-8.604-10.887
				c-3.162-2.312-6.789-3.468-10.887-3.468c-3.542,0-6.848,0.645-9.922,1.93c-3.073,1.289-5.75,3.134-8.033,5.533
				c-2.282,2.397-4.083,5.312-5.399,8.734C641.846,100.954,641.188,104.818,641.188,109.119z"/>
			<path fill="#FBB03B" d="M745.66,78.348v3.95h-32.22v21.861h21.554v3.95H713.44v27.436h32.22v3.952h-42.49V78.348H745.66z"/>
			<path fill="#FBB03B" d="M773.799,137.037c1.522,0,3.021-0.204,4.5-0.612c1.479-0.412,2.795-1.026,3.95-1.846
				s2.085-1.822,2.787-3.006c0.702-1.186,1.054-2.555,1.054-4.105c0-1.871-0.482-3.533-1.448-4.981
				c-0.965-1.448-2.231-2.787-3.797-4.018c-1.566-1.228-3.358-2.376-5.377-3.445c-2.021-1.066-4.076-2.145-6.168-3.227
				c-2.093-1.083-4.148-2.216-6.169-3.401c-2.019-1.187-3.811-2.502-5.375-3.951c-1.567-1.448-2.833-3.073-3.797-4.873
				c-0.966-1.799-1.449-3.869-1.449-6.213c0-2.339,0.439-4.514,1.316-6.516c0.877-2.005,2.166-3.739,3.862-5.202
				c1.699-1.463,3.782-2.614,6.255-3.447c2.475-0.834,5.319-1.25,8.539-1.25c5.793,0,10.367,1.214,13.717,3.643
				c3.353,2.43,5.773,5.94,7.265,10.535l-5.266,2.416c-0.614-1.874-1.396-3.586-2.349-5.137s-2.093-2.883-3.427-3.995
				c-1.329-1.11-2.86-1.969-4.587-2.567c-1.726-0.601-3.67-0.899-5.837-0.899c-1.93,0-3.623,0.271-5.071,0.812
				c-1.448,0.54-2.646,1.244-3.597,2.107c-0.952,0.862-1.669,1.843-2.153,2.941c-0.48,1.097-0.724,2.218-0.724,3.358
				c0,1.609,0.498,3.08,1.493,4.409c0.994,1.332,2.299,2.598,3.906,3.797c1.611,1.201,3.455,2.349,5.529,3.447
				c2.079,1.099,4.194,2.217,6.346,3.358c2.151,1.143,4.265,2.326,6.343,3.556c2.079,1.229,3.921,2.574,5.531,4.038
				c1.608,1.463,2.911,3.065,3.905,4.808c0.997,1.741,1.493,3.68,1.493,5.816c0,2.428-0.461,4.703-1.384,6.825
				c-0.921,2.123-2.304,3.98-4.146,5.573c-1.844,1.597-4.135,2.856-6.87,3.776c-2.737,0.923-5.92,1.384-9.548,1.384
				c-2.927,0-5.548-0.322-7.859-0.965c-2.312-0.646-4.351-1.582-6.121-2.812c-1.772-1.228-3.285-2.735-4.543-4.521
				c-1.26-1.785-2.299-3.804-3.117-6.057l5.531-2.282c0.643,1.99,1.506,3.773,2.591,5.354c1.081,1.58,2.347,2.919,3.797,4.018
				c1.448,1.095,3.056,1.93,4.826,2.503C769.93,136.754,771.811,137.037,773.799,137.037z"/>
		</g>
		<g>
			<linearGradient id="SVGID_1_" gradientUnits="userSpaceOnUse" x1="36.7354" y1="30.2832" x2="36.7354" y2="69.1632">
				<stop  offset="0" style="stop-color:#4D4D4D"/>
				<stop  offset="0.2325" style="stop-color:#494949"/>
				<stop  offset="0.4584" style="stop-color:#3D3D3D"/>
				<stop  offset="0.6817" style="stop-color:#2A2A2A"/>
				<stop  offset="0.902" style="stop-color:#0F0F0F"/>
				<stop  offset="1" style="stop-color:#000000"/>
			</linearGradient>
			<path fill="url(#SVGID_1_)" d="M38.808,50.594v-2.139h12.348v2.139c-0.984,0.169-1.625,0.458-1.923,0.865
				c-0.299,0.41-0.447,1.255-0.447,2.539v5.523c-0.414-0.026-0.752-0.04-1.011-0.04c-1.285,0-3.456,0.331-6.517,0.992
				c-2.191,0.467-4.026,0.7-5.504,0.7c-4.004,0-7.246-1.337-9.725-4.016c-2.474-2.678-3.714-5.799-3.714-9.364
				c0-3.825,1.306-7.114,3.92-9.87c2.611-2.755,5.851-4.133,9.714-4.133c3.149,0,5.918,1.005,8.304,3.015
				c0.415-0.855,0.669-1.77,0.757-2.742h2.083l0.233,9.219h-2.119c-1.338-4.486-3.941-6.729-7.819-6.729
				c-2.309,0-4.068,0.849-5.279,2.548c-1.213,1.698-1.819,4.551-1.819,8.557c0,2.814,0.179,4.953,0.536,6.418
				c0.355,1.465,1.042,2.6,2.062,3.404c1.017,0.803,2.337,1.205,3.956,1.205c1.441,0,2.634-0.312,3.578-0.934
				c0.948-0.623,1.421-1.848,1.421-3.676v-0.973C41.842,51.561,40.831,50.724,38.808,50.594z"/>
			<linearGradient id="SVGID_2_" gradientUnits="userSpaceOnUse" x1="67.3867" y1="30.2832" x2="67.3867" y2="69.1627">
				<stop  offset="0" style="stop-color:#4D4D4D"/>
				<stop  offset="0.2325" style="stop-color:#494949"/>
				<stop  offset="0.4584" style="stop-color:#3D3D3D"/>
				<stop  offset="0.6817" style="stop-color:#2A2A2A"/>
				<stop  offset="0.902" style="stop-color:#0F0F0F"/>
				<stop  offset="1" style="stop-color:#000000"/>
			</linearGradient>
			<path fill="url(#SVGID_2_)" d="M63.332,48.999v6.244c0,1.203,0.207,2.045,0.623,2.518c0.415,0.474,1.263,0.709,2.547,0.709h0.466
				v2.159H52.752V58.47h0.524c1.323,0,2.181-0.243,2.576-0.728c0.397-0.488,0.594-1.321,0.594-2.499V39.645
				c0-1.205-0.208-2.044-0.622-2.518c-0.415-0.474-1.264-0.711-2.548-0.711h-0.524v-2.158l10.58-0.02l2.371-0.02
				c2.349,0,4.062,0.078,5.146,0.233c1.082,0.156,2.148,0.529,3.198,1.118c1.051,0.59,1.876,1.396,2.48,2.421
				c0.604,1.024,0.904,2.127,0.904,3.308c0,3.138-1.776,5.283-5.329,6.437c0.947,0.597,2.417,2.464,4.414,5.602
				c1.556,2.425,2.665,3.887,3.326,4.385c0.661,0.5,1.388,0.748,2.179,0.748v2.159h-8.247c-0.752-0.894-2.145-3.163-4.182-6.807
				c-1.021-1.841-1.743-3.027-2.157-3.559c-0.416-0.532-0.84-0.871-1.273-1.021C65.726,49.094,64.784,49.013,63.332,48.999z
				 M63.332,46.627c2.189,0.025,3.668-0.107,4.435-0.398c0.763-0.293,1.366-0.816,1.808-1.576c0.44-0.758,0.661-1.785,0.661-3.082
				c0-1.854-0.438-3.138-1.312-3.852c-0.875-0.712-2.382-1.069-4.521-1.069c-0.271,0-0.628,0.008-1.069,0.02V46.627z"/>
			<linearGradient id="SVGID_3_" gradientUnits="userSpaceOnUse" x1="94.5059" y1="30.2832" x2="94.5059" y2="69.1624">
				<stop  offset="0" style="stop-color:#4D4D4D"/>
				<stop  offset="0.2325" style="stop-color:#494949"/>
				<stop  offset="0.4584" style="stop-color:#3D3D3D"/>
				<stop  offset="0.6817" style="stop-color:#2A2A2A"/>
				<stop  offset="0.902" style="stop-color:#0F0F0F"/>
				<stop  offset="1" style="stop-color:#000000"/>
			</linearGradient>
			<path fill="url(#SVGID_3_)" d="M88.049,53.511l-0.505,1.304c-0.363,0.922-0.545,1.569-0.545,1.943
				c0,0.638,0.216,1.08,0.642,1.334c0.43,0.252,1.13,0.378,2.101,0.378v2.159h-8.713V58.47c1.659,0,3.054-1.411,4.183-4.239
				l8.108-20.439h2.276l8.266,20.42c0.815,2.023,1.556,3.238,2.216,3.647c0.663,0.407,1.297,0.611,1.907,0.611v2.159H94.896V58.47
				c1.18,0,1.913-0.11,2.198-0.339c0.285-0.228,0.427-0.517,0.427-0.865c0-0.312-0.116-0.72-0.349-1.227l-0.254-0.604l-0.757-1.925
				H88.049z M88.885,51.274h6.399l-3.287-7.876L88.885,51.274z"/>
			<linearGradient id="SVGID_4_" gradientUnits="userSpaceOnUse" x1="122.6572" y1="30.2832" x2="122.6572" y2="69.1638">
				<stop  offset="0" style="stop-color:#4D4D4D"/>
				<stop  offset="0.2325" style="stop-color:#494949"/>
				<stop  offset="0.4584" style="stop-color:#3D3D3D"/>
				<stop  offset="0.6817" style="stop-color:#2A2A2A"/>
				<stop  offset="0.902" style="stop-color:#0F0F0F"/>
				<stop  offset="1" style="stop-color:#000000"/>
			</linearGradient>
			<path fill="url(#SVGID_4_)" d="M114.323,41.765v12.116c0,1.943,0.354,3.196,1.061,3.753c0.706,0.558,1.61,0.836,2.714,0.836
				v2.159h-9.899V58.47c0.843,0,1.576-0.204,2.198-0.611c0.623-0.409,1.017-0.882,1.185-1.421c0.169-0.536,0.253-1.384,0.253-2.538
				V40.442c0-2.684-1.257-4.026-3.771-4.026v-2.158h8.905l14.45,16.143v-9.666c0-2.879-1.211-4.318-3.637-4.318v-2.158h9.471v2.158
				c-0.66,0-1.28,0.182-1.856,0.545s-0.97,0.827-1.177,1.391c-0.207,0.564-0.311,1.384-0.311,2.46v20.246h-2.49L114.323,41.765z"/>
			<linearGradient id="SVGID_5_" gradientUnits="userSpaceOnUse" x1="152.5293" y1="30.2832" x2="152.5293" y2="69.1624">
				<stop  offset="0" style="stop-color:#4D4D4D"/>
				<stop  offset="0.2325" style="stop-color:#494949"/>
				<stop  offset="0.4584" style="stop-color:#3D3D3D"/>
				<stop  offset="0.6817" style="stop-color:#2A2A2A"/>
				<stop  offset="0.902" style="stop-color:#0F0F0F"/>
				<stop  offset="1" style="stop-color:#000000"/>
			</linearGradient>
			<path fill="url(#SVGID_5_)" d="M149,36.611h-2.218c-1.322,0-2.295,0.143-2.917,0.428s-1.145,0.853-1.564,1.701
				c-0.423,0.85-0.679,1.857-0.77,3.024h-2.196v-7.507h26.39v7.507h-2.196c-0.415-2.022-1.001-3.387-1.753-4.093
				c-0.752-0.707-1.95-1.061-3.597-1.061h-2.274v18.632c0,1.203,0.203,2.045,0.611,2.518c0.409,0.474,1.268,0.709,2.578,0.709h0.68
				v2.159h-14.567V58.47h0.622c1.322,0,2.183-0.243,2.578-0.728c0.395-0.488,0.594-1.321,0.594-2.499V36.611z"/>
			<linearGradient id="SVGID_6_" gradientUnits="userSpaceOnUse" x1="191.1143" y1="30.2832" x2="191.1143" y2="69.1624">
				<stop  offset="0" style="stop-color:#4D4D4D"/>
				<stop  offset="0.2325" style="stop-color:#494949"/>
				<stop  offset="0.4584" style="stop-color:#3D3D3D"/>
				<stop  offset="0.6817" style="stop-color:#2A2A2A"/>
				<stop  offset="0.902" style="stop-color:#0F0F0F"/>
				<stop  offset="1" style="stop-color:#000000"/>
			</linearGradient>
			<path fill="url(#SVGID_6_)" d="M187.584,36.611h-2.217c-1.323,0-2.295,0.143-2.918,0.428c-0.622,0.285-1.144,0.853-1.564,1.701
				c-0.422,0.85-0.678,1.857-0.769,3.024h-2.197v-7.507h26.391v7.507h-2.197c-0.415-2.022-1-3.387-1.752-4.093
				c-0.752-0.707-1.95-1.061-3.597-1.061h-2.275v18.632c0,1.203,0.205,2.045,0.612,2.518c0.409,0.474,1.267,0.709,2.577,0.709h0.681
				v2.159H183.79V58.47h0.623c1.322,0,2.182-0.243,2.579-0.728c0.394-0.488,0.592-1.321,0.592-2.499V36.611z"/>
			<linearGradient id="SVGID_7_" gradientUnits="userSpaceOnUse" x1="206.585" y1="30.291" x2="206.585" y2="69.1609">
				<stop  offset="0" style="stop-color:#4D4D4D"/>
				<stop  offset="0.2325" style="stop-color:#494949"/>
				<stop  offset="0.4584" style="stop-color:#3D3D3D"/>
				<stop  offset="0.6817" style="stop-color:#2A2A2A"/>
				<stop  offset="0.902" style="stop-color:#0F0F0F"/>
				<stop  offset="1" style="stop-color:#000000"/>
			</linearGradient>
			<path fill="url(#SVGID_7_)" d="M203.064,57.811c0-0.96,0.345-1.786,1.03-2.48c0.689-0.693,1.519-1.04,2.489-1.04
				c0.975,0,1.804,0.347,2.489,1.04c0.689,0.694,1.032,1.521,1.032,2.48c0,0.971-0.347,1.8-1.04,2.488
				c-0.696,0.687-1.522,1.03-2.481,1.03c-0.96,0-1.786-0.344-2.478-1.03C203.411,59.61,203.064,58.781,203.064,57.811z"/>
			<linearGradient id="SVGID_8_" gradientUnits="userSpaceOnUse" x1="239.8125" y1="30.2832" x2="239.8125" y2="69.1632">
				<stop  offset="0" style="stop-color:#4D4D4D"/>
				<stop  offset="0.2325" style="stop-color:#494949"/>
				<stop  offset="0.4584" style="stop-color:#3D3D3D"/>
				<stop  offset="0.6817" style="stop-color:#2A2A2A"/>
				<stop  offset="0.902" style="stop-color:#0F0F0F"/>
				<stop  offset="1" style="stop-color:#000000"/>
			</linearGradient>
			<path fill="url(#SVGID_8_)" d="M225.062,47.365c0-2.372,0.659-4.687,1.981-6.942s3.116-3.925,5.379-5.007
				c2.261-1.083,4.682-1.625,7.264-1.625c4.642,0,8.279,1.339,10.919,4.016c2.64,2.678,3.958,5.961,3.958,9.851
				c0,3.695-1.315,6.872-3.948,9.531c-2.63,2.655-6.209,3.985-10.735,3.985c-3.097,0-5.839-0.656-8.216-1.963
				c-2.379-1.312-4.075-3.071-5.087-5.281S225.062,49.53,225.062,47.365z M233.188,47.152c0,4.058,0.544,6.984,1.634,8.779
				c1.089,1.797,2.712,2.693,4.863,2.693c2.241,0,3.934-0.818,5.075-2.459c1.141-1.64,1.712-4.515,1.712-8.625
				c0-3.76-0.535-6.567-1.604-8.421c-1.071-1.854-2.771-2.781-5.105-2.781c-2.204,0-3.853,0.862-4.941,2.586
				C233.732,40.649,233.188,43.393,233.188,47.152z"/>
			<linearGradient id="SVGID_9_" gradientUnits="userSpaceOnUse" x1="269.3623" y1="30.2832" x2="269.3623" y2="69.1624">
				<stop  offset="0" style="stop-color:#4D4D4D"/>
				<stop  offset="0.2325" style="stop-color:#494949"/>
				<stop  offset="0.4584" style="stop-color:#3D3D3D"/>
				<stop  offset="0.6817" style="stop-color:#2A2A2A"/>
				<stop  offset="0.902" style="stop-color:#0F0F0F"/>
				<stop  offset="1" style="stop-color:#000000"/>
			</linearGradient>
			<path fill="url(#SVGID_9_)" d="M281.439,51.858l-0.116,8.771h-24.038V58.47h0.389c1.323,0,2.182-0.243,2.579-0.728
				c0.392-0.488,0.593-1.321,0.593-2.499V39.645c0-1.205-0.208-2.044-0.623-2.518s-1.266-0.711-2.549-0.711h-0.389v-2.158h14.14
				v2.158h-0.526c-1.322,0-2.182,0.244-2.577,0.729c-0.396,0.487-0.593,1.319-0.593,2.499v15.053c0,1.127,0.066,1.874,0.195,2.237
				c0.131,0.363,0.47,0.678,1.02,0.942c0.552,0.267,1.516,0.4,2.889,0.4c2.309,0,4.032-0.582,5.173-1.741
				c1.142-1.159,1.92-2.72,2.335-4.678H281.439z"/>
			<linearGradient id="SVGID_10_" gradientUnits="userSpaceOnUse" x1="293.332" y1="30.2832" x2="293.332" y2="69.1632">
				<stop  offset="0" style="stop-color:#4D4D4D"/>
				<stop  offset="0.2325" style="stop-color:#494949"/>
				<stop  offset="0.4584" style="stop-color:#3D3D3D"/>
				<stop  offset="0.6817" style="stop-color:#2A2A2A"/>
				<stop  offset="0.902" style="stop-color:#0F0F0F"/>
				<stop  offset="1" style="stop-color:#000000"/>
			</linearGradient>
			<path fill="url(#SVGID_10_)" d="M283.909,60.182v-9.023h2.333c0.648,2.696,1.622,4.622,2.919,5.776
				c1.296,1.153,2.697,1.731,4.201,1.731c1.115,0,2.002-0.332,2.663-0.993s0.993-1.438,0.993-2.333c0-0.636-0.208-1.271-0.623-1.906
				c-0.414-0.636-1.399-1.342-2.956-2.119c-2.996-1.492-5.02-2.583-6.066-3.278c-1.053-0.692-1.895-1.585-2.531-2.674
				c-0.633-1.089-0.951-2.34-0.951-3.754c0-2.268,0.812-4.138,2.44-5.609c1.626-1.472,3.51-2.208,5.649-2.208
				c2.243,0,4.149,0.752,5.717,2.256c0.26-0.389,0.473-0.984,0.644-1.789h2.235v7.779h-2.178c-0.39-1.725-1.128-3.145-2.217-4.259
				c-1.09-1.115-2.316-1.674-3.676-1.674c-1.026,0-1.839,0.286-2.441,0.856c-0.604,0.57-0.903,1.283-0.903,2.14
				c0,0.661,0.192,1.273,0.582,1.838c0.389,0.563,0.915,1.03,1.575,1.4c0.662,0.368,2.062,1.054,4.201,2.052
				c1.919,0.907,3.34,1.718,4.259,2.431c0.922,0.714,1.649,1.611,2.189,2.692c0.536,1.084,0.807,2.254,0.807,3.512
				c0,2.333-0.862,4.275-2.587,5.823c-1.725,1.551-3.78,2.325-6.166,2.325c-1.359,0-2.693-0.285-3.995-0.856
				c-1.304-0.57-2.344-1.329-3.121-2.274c-0.3,0.582-0.519,1.297-0.663,2.139H283.909z"/>
			<linearGradient id="SVGID_11_" gradientUnits="userSpaceOnUse" x1="320.7148" y1="30.2832" x2="320.7148" y2="69.1632">
				<stop  offset="0" style="stop-color:#4D4D4D"/>
				<stop  offset="0.2325" style="stop-color:#494949"/>
				<stop  offset="0.4584" style="stop-color:#3D3D3D"/>
				<stop  offset="0.6817" style="stop-color:#2A2A2A"/>
				<stop  offset="0.902" style="stop-color:#0F0F0F"/>
				<stop  offset="1" style="stop-color:#000000"/>
			</linearGradient>
			<path fill="url(#SVGID_11_)" d="M305.965,47.365c0-2.372,0.659-4.687,1.981-6.942s3.115-3.925,5.379-5.007
				c2.261-1.083,4.682-1.625,7.264-1.625c4.642,0,8.279,1.339,10.919,4.016c2.64,2.678,3.958,5.961,3.958,9.851
				c0,3.695-1.315,6.872-3.948,9.531c-2.631,2.655-6.209,3.985-10.736,3.985c-3.096,0-5.838-0.656-8.216-1.963
				c-2.378-1.312-4.075-3.071-5.085-5.281C306.468,51.72,305.965,49.53,305.965,47.365z M314.092,47.152
				c0,4.058,0.545,6.984,1.634,8.779c1.089,1.797,2.712,2.693,4.863,2.693c2.241,0,3.935-0.818,5.076-2.459
				c1.141-1.64,1.71-4.515,1.71-8.625c0-3.76-0.534-6.567-1.604-8.421c-1.07-1.854-2.771-2.781-5.104-2.781
				c-2.204,0-3.853,0.862-4.941,2.586C314.637,40.649,314.092,43.393,314.092,47.152z"/>
			<linearGradient id="SVGID_12_" gradientUnits="userSpaceOnUse" x1="352.8242" y1="30.2832" x2="352.8242" y2="69.1638">
				<stop  offset="0" style="stop-color:#4D4D4D"/>
				<stop  offset="0.2325" style="stop-color:#494949"/>
				<stop  offset="0.4584" style="stop-color:#3D3D3D"/>
				<stop  offset="0.6817" style="stop-color:#2A2A2A"/>
				<stop  offset="0.902" style="stop-color:#0F0F0F"/>
				<stop  offset="1" style="stop-color:#000000"/>
			</linearGradient>
			<path fill="url(#SVGID_12_)" d="M344.489,41.765v12.116c0,1.943,0.353,3.196,1.061,3.753c0.707,0.558,1.61,0.836,2.712,0.836
				v2.159h-9.899V58.47c0.845,0,1.577-0.204,2.199-0.611c0.622-0.409,1.017-0.882,1.187-1.421c0.166-0.536,0.252-1.384,0.252-2.538
				V40.442c0-2.684-1.258-4.026-3.771-4.026v-2.158h8.906L361.586,50.4v-9.666c0-2.879-1.215-4.318-3.639-4.318v-2.158h9.473v2.158
				c-0.664,0-1.282,0.182-1.859,0.545c-0.576,0.363-0.967,0.827-1.174,1.391c-0.209,0.564-0.312,1.384-0.312,2.46v20.246h-2.488
				L344.489,41.765z"/>
			<linearGradient id="SVGID_13_" gradientUnits="userSpaceOnUse" x1="391.4258" y1="30.2832" x2="391.4258" y2="69.1624">
				<stop  offset="0" style="stop-color:#4D4D4D"/>
				<stop  offset="0.2325" style="stop-color:#494949"/>
				<stop  offset="0.4584" style="stop-color:#3D3D3D"/>
				<stop  offset="0.6817" style="stop-color:#2A2A2A"/>
				<stop  offset="0.902" style="stop-color:#0F0F0F"/>
				<stop  offset="1" style="stop-color:#000000"/>
			</linearGradient>
			<path fill="url(#SVGID_13_)" d="M389.824,48.026v6.517c0,1.244,0.07,2.058,0.213,2.438c0.142,0.384,0.523,0.701,1.146,0.954
				c0.622,0.252,1.57,0.379,2.841,0.379c1.723,0,2.989-0.214,3.801-0.642c0.811-0.428,1.537-1.18,2.178-2.256
				c0.642-1.075,1.105-2.224,1.392-3.441h2.178l-0.176,8.653H379.28V58.47h0.488c1.309,0,2.161-0.243,2.557-0.728
				c0.396-0.488,0.593-1.321,0.593-2.499V39.605c0-1.205-0.203-2.044-0.611-2.518c-0.41-0.474-1.255-0.711-2.538-0.711h-0.488
				v-2.119h22.464l0.39,6.826h-2.179c-0.389-1.192-0.822-2.142-1.304-2.849c-0.479-0.707-0.963-1.16-1.448-1.362
				c-0.485-0.2-1.306-0.301-2.46-0.301h-4.919v9.102h2.447c1.167,0,1.941-0.221,2.327-0.661c0.381-0.44,0.599-1.31,0.65-2.606h2.198
				v8.946h-2.198c0.013-0.169,0.021-0.291,0.021-0.37c0-0.752-0.16-1.433-0.478-2.042c-0.32-0.608-1.131-0.914-2.441-0.914H389.824z
				"/>
			<linearGradient id="SVGID_14_" gradientUnits="userSpaceOnUse" x1="420.4453" y1="30.2832" x2="420.4453" y2="69.1638">
				<stop  offset="0" style="stop-color:#4D4D4D"/>
				<stop  offset="0.2325" style="stop-color:#494949"/>
				<stop  offset="0.4584" style="stop-color:#3D3D3D"/>
				<stop  offset="0.6817" style="stop-color:#2A2A2A"/>
				<stop  offset="0.902" style="stop-color:#0F0F0F"/>
				<stop  offset="1" style="stop-color:#000000"/>
			</linearGradient>
			<path fill="url(#SVGID_14_)" d="M412.109,41.765v12.116c0,1.943,0.354,3.196,1.061,3.753c0.706,0.558,1.609,0.836,2.713,0.836
				v2.159h-9.898V58.47c0.843,0,1.576-0.204,2.198-0.611c0.623-0.409,1.017-0.882,1.186-1.421c0.169-0.536,0.252-1.384,0.252-2.538
				V40.442c0-2.684-1.257-4.026-3.771-4.026v-2.158h8.904L429.205,50.4v-9.666c0-2.879-1.211-4.318-3.639-4.318v-2.158h9.474v2.158
				c-0.663,0-1.282,0.182-1.859,0.545c-0.575,0.363-0.968,0.827-1.176,1.391c-0.207,0.564-0.312,1.384-0.312,2.46v20.246h-2.488
				L412.109,41.765z"/>
			<linearGradient id="SVGID_15_" gradientUnits="userSpaceOnUse" x1="451.5889" y1="30.2827" x2="451.5889" y2="69.1625">
				<stop  offset="0" style="stop-color:#4D4D4D"/>
				<stop  offset="0.2325" style="stop-color:#494949"/>
				<stop  offset="0.4584" style="stop-color:#3D3D3D"/>
				<stop  offset="0.6817" style="stop-color:#2A2A2A"/>
				<stop  offset="0.902" style="stop-color:#0F0F0F"/>
				<stop  offset="1" style="stop-color:#000000"/>
			</linearGradient>
			<path fill="url(#SVGID_15_)" d="M437.217,60.629V58.47c1.388,0,2.308-0.215,2.762-0.65s0.681-1.294,0.681-2.576V39.625
				c0-1.244-0.214-2.094-0.642-2.548c-0.428-0.453-1.361-0.681-2.801-0.681v-2.139l3.171-0.117c3.19-0.129,5.69-0.194,7.505-0.194
				c3.035,0,5.501,0.176,7.402,0.525c1.898,0.351,3.694,1.117,5.387,2.305c1.692,1.187,2.994,2.724,3.908,4.608
				c0.913,1.888,1.371,3.965,1.371,6.233c0,2.321-0.482,4.396-1.448,6.224c-0.968,1.827-2.265,3.286-3.898,4.376
				c-1.634,1.089-3.327,1.764-5.077,2.022s-4.693,0.389-8.829,0.389H437.217z M447.563,36.319v18.164
				c0,1.167,0.056,1.953,0.165,2.354c0.111,0.403,0.401,0.745,0.876,1.031c0.473,0.284,1.202,0.428,2.188,0.428
				c2.438,0,4.263-0.896,5.476-2.684c1.211-1.79,1.816-4.468,1.816-8.032c0-2.879-0.447-5.17-1.341-6.875
				c-0.895-1.705-2.056-2.862-3.482-3.472S449.937,36.319,447.563,36.319z"/>
			<linearGradient id="SVGID_16_" gradientUnits="userSpaceOnUse" x1="484.6016" y1="30.2832" x2="484.6016" y2="69.1632">
				<stop  offset="0" style="stop-color:#4D4D4D"/>
				<stop  offset="0.2325" style="stop-color:#494949"/>
				<stop  offset="0.4584" style="stop-color:#3D3D3D"/>
				<stop  offset="0.6817" style="stop-color:#2A2A2A"/>
				<stop  offset="0.902" style="stop-color:#0F0F0F"/>
				<stop  offset="1" style="stop-color:#000000"/>
			</linearGradient>
			<path fill="url(#SVGID_16_)" d="M469.851,47.365c0-2.372,0.659-4.687,1.981-6.942s3.116-3.925,5.379-5.007
				c2.263-1.083,4.683-1.625,7.266-1.625c4.639,0,8.28,1.339,10.918,4.016c2.639,2.678,3.957,5.961,3.957,9.851
				c0,3.695-1.316,6.872-3.948,9.531c-2.632,2.655-6.21,3.985-10.735,3.985c-3.099,0-5.836-0.656-8.216-1.963
				c-2.378-1.312-4.075-3.071-5.086-5.281S469.851,49.53,469.851,47.365z M477.978,47.152c0,4.058,0.545,6.984,1.634,8.779
				c1.09,1.797,2.71,2.693,4.865,2.693c2.24,0,3.934-0.818,5.074-2.459c1.141-1.64,1.711-4.515,1.711-8.625
				c0-3.76-0.535-6.567-1.604-8.421c-1.07-1.854-2.771-2.781-5.104-2.781c-2.206,0-3.853,0.862-4.942,2.586
				C478.522,40.649,477.978,43.393,477.978,47.152z"/>
			<linearGradient id="SVGID_17_" gradientUnits="userSpaceOnUse" x1="519.1602" y1="30.2832" x2="519.1602" y2="69.1631">
				<stop  offset="0" style="stop-color:#4D4D4D"/>
				<stop  offset="0.2325" style="stop-color:#494949"/>
				<stop  offset="0.4584" style="stop-color:#3D3D3D"/>
				<stop  offset="0.6817" style="stop-color:#2A2A2A"/>
				<stop  offset="0.902" style="stop-color:#0F0F0F"/>
				<stop  offset="1" style="stop-color:#000000"/>
			</linearGradient>
			<path fill="url(#SVGID_17_)" d="M509.932,61.174l-6.418-20.888c-0.57-1.866-1.066-2.978-1.486-3.335
				c-0.423-0.356-1.088-0.535-1.994-0.535v-2.158h12.018v2.158c-1.438,0-2.157,0.442-2.157,1.323c0,0.505,0.103,1.103,0.311,1.789
				l3.695,11.766l5.562-17.036h3.015l6.671,17.036l2.957-10.696c0.219-0.83,0.328-1.464,0.328-1.906
				c0-1.516-0.861-2.275-2.586-2.275v-2.158h8.441v2.158c-0.791,0-1.479,0.277-2.062,0.828s-1.263,2.213-2.041,4.987l-5.289,18.942
				h-3.035l-6.886-17.698l-5.912,17.698H509.932z"/>
			<linearGradient id="SVGID_18_" gradientUnits="userSpaceOnUse" x1="557.4424" y1="30.2832" x2="557.4424" y2="69.1624">
				<stop  offset="0" style="stop-color:#4D4D4D"/>
				<stop  offset="0.2325" style="stop-color:#494949"/>
				<stop  offset="0.4584" style="stop-color:#3D3D3D"/>
				<stop  offset="0.6817" style="stop-color:#2A2A2A"/>
				<stop  offset="0.902" style="stop-color:#0F0F0F"/>
				<stop  offset="1" style="stop-color:#000000"/>
			</linearGradient>
			<path fill="url(#SVGID_18_)" d="M554.273,60.629l-9.802-20.556v13.633c0,1.218,0.083,2.116,0.251,2.693
				c0.17,0.577,0.562,1.066,1.179,1.469c0.615,0.401,1.363,0.602,2.245,0.602v2.159h-9.491V58.47c0.83,0,1.551-0.215,2.159-0.65
				c0.61-0.436,0.982-0.934,1.119-1.499c0.136-0.562,0.203-1.468,0.203-2.711V39.742c0-1.322-0.229-2.208-0.689-2.654
				c-0.46-0.447-1.392-0.672-2.792-0.672v-2.158h10.562l8.129,17.328l8.207-17.328h10.598v2.158h-0.523
				c-1.322,0-2.182,0.244-2.576,0.729c-0.396,0.487-0.593,1.319-0.593,2.499v15.599c0,1.203,0.204,2.045,0.61,2.518
				c0.41,0.474,1.262,0.709,2.559,0.709h0.603v2.159h-14.351V58.47h0.523c1.309,0,2.161-0.243,2.559-0.728
				c0.394-0.488,0.592-1.321,0.592-2.499V39.742l-9.763,20.887H554.273z"/>
			<linearGradient id="SVGID_19_" gradientUnits="userSpaceOnUse" x1="590.2441" y1="30.2832" x2="590.2441" y2="69.1624">
				<stop  offset="0" style="stop-color:#4D4D4D"/>
				<stop  offset="0.2325" style="stop-color:#494949"/>
				<stop  offset="0.4584" style="stop-color:#3D3D3D"/>
				<stop  offset="0.6817" style="stop-color:#2A2A2A"/>
				<stop  offset="0.902" style="stop-color:#0F0F0F"/>
				<stop  offset="1" style="stop-color:#000000"/>
			</linearGradient>
			<path fill="url(#SVGID_19_)" d="M588.638,48.026v6.517c0,1.244,0.071,2.058,0.216,2.438c0.141,0.384,0.523,0.701,1.146,0.954
				c0.623,0.252,1.568,0.379,2.839,0.379c1.725,0,2.991-0.214,3.804-0.642c0.809-0.428,1.534-1.18,2.178-2.256
				c0.641-1.075,1.104-2.224,1.391-3.441h2.179l-0.177,8.653h-24.114V58.47h0.486c1.308,0,2.161-0.243,2.556-0.728
				c0.396-0.488,0.593-1.321,0.593-2.499V39.605c0-1.205-0.203-2.044-0.61-2.518c-0.41-0.474-1.257-0.711-2.538-0.711h-0.486v-2.119
				h22.461l0.389,6.826h-2.179c-0.389-1.192-0.821-2.142-1.303-2.849c-0.479-0.707-0.962-1.16-1.447-1.362
				c-0.487-0.2-1.309-0.301-2.461-0.301h-4.921v9.102h2.451c1.167,0,1.941-0.221,2.325-0.661c0.381-0.44,0.598-1.31,0.651-2.606
				h2.197v8.946h-2.197c0.012-0.169,0.019-0.291,0.019-0.37c0-0.752-0.158-1.433-0.477-2.042c-0.317-0.608-1.131-0.914-2.44-0.914
				H588.638z"/>
			<linearGradient id="SVGID_20_" gradientUnits="userSpaceOnUse" x1="619.2588" y1="30.2832" x2="619.2588" y2="69.1638">
				<stop  offset="0" style="stop-color:#4D4D4D"/>
				<stop  offset="0.2325" style="stop-color:#494949"/>
				<stop  offset="0.4584" style="stop-color:#3D3D3D"/>
				<stop  offset="0.6817" style="stop-color:#2A2A2A"/>
				<stop  offset="0.902" style="stop-color:#0F0F0F"/>
				<stop  offset="1" style="stop-color:#000000"/>
			</linearGradient>
			<path fill="url(#SVGID_20_)" d="M610.924,41.765v12.116c0,1.943,0.354,3.196,1.062,3.753c0.705,0.558,1.61,0.836,2.714,0.836
				v2.159h-9.9V58.47c0.843,0,1.576-0.204,2.198-0.611c0.623-0.409,1.017-0.882,1.185-1.421c0.17-0.536,0.253-1.384,0.253-2.538
				V40.442c0-2.684-1.257-4.026-3.771-4.026v-2.158h8.904L628.02,50.4v-9.666c0-2.879-1.213-4.318-3.637-4.318v-2.158h9.471v2.158
				c-0.66,0-1.279,0.182-1.856,0.545s-0.97,0.827-1.177,1.391c-0.208,0.564-0.311,1.384-0.311,2.46v20.246h-2.49L610.924,41.765z"/>
			<linearGradient id="SVGID_21_" gradientUnits="userSpaceOnUse" x1="649.1309" y1="30.2832" x2="649.1309" y2="69.1624">
				<stop  offset="0" style="stop-color:#4D4D4D"/>
				<stop  offset="0.2325" style="stop-color:#494949"/>
				<stop  offset="0.4584" style="stop-color:#3D3D3D"/>
				<stop  offset="0.6817" style="stop-color:#2A2A2A"/>
				<stop  offset="0.902" style="stop-color:#0F0F0F"/>
				<stop  offset="1" style="stop-color:#000000"/>
			</linearGradient>
			<path fill="url(#SVGID_21_)" d="M645.601,36.611h-2.218c-1.322,0-2.295,0.143-2.917,0.428s-1.145,0.853-1.564,1.701
				c-0.423,0.85-0.679,1.857-0.77,3.024h-2.196v-7.507h26.391v7.507h-2.197c-0.416-2.022-1-3.387-1.752-4.093
				c-0.752-0.707-1.951-1.061-3.598-1.061h-2.273v18.632c0,1.203,0.203,2.045,0.611,2.518c0.408,0.474,1.267,0.709,2.578,0.709h0.68
				v2.159h-14.568V58.47h0.622c1.323,0,2.183-0.243,2.579-0.728c0.395-0.488,0.593-1.321,0.593-2.499V36.611z"/>
			<linearGradient id="SVGID_22_" gradientUnits="userSpaceOnUse" x1="680.0234" y1="30.2837" x2="680.0234" y2="69.1634">
				<stop  offset="0" style="stop-color:#4D4D4D"/>
				<stop  offset="0.2325" style="stop-color:#494949"/>
				<stop  offset="0.4584" style="stop-color:#3D3D3D"/>
				<stop  offset="0.6817" style="stop-color:#2A2A2A"/>
				<stop  offset="0.902" style="stop-color:#0F0F0F"/>
				<stop  offset="1" style="stop-color:#000000"/>
			</linearGradient>
			<path fill="url(#SVGID_22_)" d="M684.264,46.86l-1.945,8.713c-1.129,5.03-2.629,8.782-4.503,11.262
				c-1.873,2.474-4.417,3.713-7.633,3.713c-1.529,0-2.648-0.291-3.354-0.876c-0.707-0.582-1.061-1.289-1.061-2.119
				c0-0.752,0.275-1.386,0.826-1.896c0.552-0.512,1.191-0.768,1.916-0.768c1.505,0,2.373,0.804,2.606,2.412
				c0.116,0.814,0.475,1.225,1.071,1.225c0.608,0,1.163-0.545,1.66-1.634c0.5-1.09,1.105-3.288,1.819-6.593l0.603-2.819
				c0.181-0.675,0.311-1.206,0.388-1.595l1.966-9.024h-2.529l0.662-2.159h2.312c1.22-4.435,2.645-7.373,4.271-8.819
				c1.628-1.444,3.569-2.168,5.825-2.168c1.504,0,2.732,0.291,3.686,0.875c0.952,0.584,1.43,1.361,1.43,2.333
				c0,0.648-0.231,1.216-0.69,1.702c-0.461,0.486-1.049,0.729-1.762,0.729c-1.024,0-1.904-0.72-2.645-2.159
				c-0.545-1.076-1.095-1.614-1.652-1.614c-0.649,0-1.148,0.862-1.497,2.587l-1.285,6.534h2.898l-0.661,2.159H684.264z"/>
			<linearGradient id="SVGID_23_" gradientUnits="userSpaceOnUse" x1="697.8867" y1="30.2842" x2="697.8867" y2="69.1617">
				<stop  offset="0" style="stop-color:#4D4D4D"/>
				<stop  offset="0.2325" style="stop-color:#494949"/>
				<stop  offset="0.4584" style="stop-color:#3D3D3D"/>
				<stop  offset="0.6817" style="stop-color:#2A2A2A"/>
				<stop  offset="0.902" style="stop-color:#0F0F0F"/>
				<stop  offset="1" style="stop-color:#000000"/>
			</linearGradient>
			<path fill="url(#SVGID_23_)" d="M688.134,53.92c0-1.362,0.397-2.822,1.196-4.385c0.796-1.563,2.049-2.863,3.752-3.9
				c1.707-1.037,3.731-1.556,6.08-1.556c2.915,0,5.059,0.693,6.427,2.081c1.367,1.387,2.052,3.066,2.052,5.037
				c0,2.71-1.052,5.061-3.152,7.05c-2.1,1.989-4.781,2.985-8.049,2.985c-2.375,0-4.352-0.6-5.933-1.8
				C688.925,58.234,688.134,56.395,688.134,53.92z M693.831,55.885c0,1.152,0.219,2.019,0.652,2.596
				c0.435,0.578,1.085,0.865,1.956,0.865c1.605,0,2.918-1.213,3.938-3.636c1.018-2.426,1.526-4.475,1.526-6.146
				c0-1.271-0.243-2.19-0.729-2.762c-0.485-0.571-1.047-0.855-1.682-0.855c-1.713,0-3.082,1.271-4.115,3.812
				C694.348,52.299,693.831,54.342,693.831,55.885z"/>
			<linearGradient id="SVGID_24_" gradientUnits="userSpaceOnUse" x1="718.6484" y1="30.2842" x2="718.6484" y2="69.1622">
				<stop  offset="0" style="stop-color:#4D4D4D"/>
				<stop  offset="0.2325" style="stop-color:#494949"/>
				<stop  offset="0.4584" style="stop-color:#3D3D3D"/>
				<stop  offset="0.6817" style="stop-color:#2A2A2A"/>
				<stop  offset="0.902" style="stop-color:#0F0F0F"/>
				<stop  offset="1" style="stop-color:#000000"/>
			</linearGradient>
			<path fill="url(#SVGID_24_)" d="M710.48,60.629l3.424-11.221c0.232-0.752,0.35-1.291,0.35-1.614c0-0.402-0.203-0.603-0.604-0.603
				c-0.922,0-1.873,0.888-2.858,2.664h-1.811c1.063-1.932,2.315-3.378,3.755-4.337c1.439-0.96,2.84-1.439,4.201-1.439
				c0.803,0,1.422,0.253,1.857,0.758c0.434,0.506,0.652,1.154,0.652,1.946c0,0.854-0.365,2.605-1.09,5.25
				c2.915-5.303,5.47-7.954,7.661-7.954c0.648,0,1.193,0.212,1.634,0.633c0.44,0.422,0.663,1.008,0.663,1.76
				c0,0.907-0.262,1.72-0.778,2.441c-0.521,0.718-1.161,1.078-1.926,1.078c-0.662,0-1.167-0.279-1.517-0.836
				c-0.272-0.402-0.54-0.604-0.798-0.604c-0.894,0-2.114,1.414-3.657,4.24c-1.543,2.825-2.638,5.439-3.286,7.837H710.48z"/>
			<linearGradient id="SVGID_25_" gradientUnits="userSpaceOnUse" x1="745.5918" y1="30.2847" x2="745.5918" y2="69.1617">
				<stop  offset="0" style="stop-color:#4D4D4D"/>
				<stop  offset="0.2325" style="stop-color:#494949"/>
				<stop  offset="0.4584" style="stop-color:#3D3D3D"/>
				<stop  offset="0.6817" style="stop-color:#2A2A2A"/>
				<stop  offset="0.902" style="stop-color:#0F0F0F"/>
				<stop  offset="1" style="stop-color:#000000"/>
			</linearGradient>
			<path fill="url(#SVGID_25_)" d="M748.521,55.124h2.158c-0.558,1.52-1.495,2.916-2.81,4.192c-1.317,1.277-2.856,1.916-4.62,1.916
				c-1.115,0-2.044-0.296-2.791-0.885c-0.745-0.589-1.116-1.553-1.116-2.89c0-0.855,0.277-2.137,0.834-3.849l2.062-6.749h-3.268
				l0.661-2.159h3.268l1.79-5.931h5.794l-1.807,5.931h3.537l-0.659,2.159h-3.541l-2.412,7.915c-0.453,1.49-0.68,2.393-0.68,2.704
				c0,0.284,0.061,0.498,0.185,0.643c0.123,0.14,0.309,0.212,0.554,0.212C746.594,58.334,747.546,57.266,748.521,55.124z"/>
			<linearGradient id="SVGID_26_" gradientUnits="userSpaceOnUse" x1="763.4053" y1="30.2837" x2="763.4053" y2="69.1626">
				<stop  offset="0" style="stop-color:#4D4D4D"/>
				<stop  offset="0.2325" style="stop-color:#494949"/>
				<stop  offset="0.4584" style="stop-color:#3D3D3D"/>
				<stop  offset="0.6817" style="stop-color:#2A2A2A"/>
				<stop  offset="0.902" style="stop-color:#0F0F0F"/>
				<stop  offset="1" style="stop-color:#000000"/>
			</linearGradient>
			<path fill="url(#SVGID_26_)" d="M752.058,60.629l6.789-22.189c0.155-0.52,0.233-0.895,0.233-1.128
				c0-0.688-0.799-1.031-2.393-1.031l0.682-2.022c2.033,0,3.419-0.029,4.15-0.087c0.733-0.06,1.63-0.211,2.695-0.457h1.846
				l-4.745,15.558c2.45-3.462,5.121-5.192,8.013-5.192c1.075,0,1.884,0.25,2.42,0.749c0.54,0.499,0.809,1.131,0.809,1.896
				c0,0.363-0.068,0.812-0.203,1.342c-0.138,0.531-0.861,2.977-2.17,7.333c-0.337,1.115-0.505,1.756-0.505,1.925
				c0,0.35,0.161,0.524,0.484,0.524c0.312,0,0.663-0.182,1.052-0.545c0.39-0.363,0.815-0.908,1.282-1.634h2.256
				c-0.814,1.608-1.89,2.886-3.217,3.833c-1.331,0.945-2.766,1.42-4.309,1.42c-2.27,0-3.403-0.922-3.403-2.763
				c0-0.738,0.538-2.756,1.613-6.048c0.597-1.802,0.896-2.904,0.896-3.306c0-0.559-0.26-0.837-0.777-0.837
				c-0.83,0-1.878,0.908-3.142,2.723c-1.263,1.814-2.421,3.929-3.471,6.341l-1.108,3.597H752.058z"/>
			<linearGradient id="SVGID_27_" gradientUnits="userSpaceOnUse" x1="784.8291" y1="30.2842" x2="784.8291" y2="69.1617">
				<stop  offset="0" style="stop-color:#4D4D4D"/>
				<stop  offset="0.2325" style="stop-color:#494949"/>
				<stop  offset="0.4584" style="stop-color:#3D3D3D"/>
				<stop  offset="0.6817" style="stop-color:#2A2A2A"/>
				<stop  offset="0.902" style="stop-color:#0F0F0F"/>
				<stop  offset="1" style="stop-color:#000000"/>
			</linearGradient>
			<path fill="url(#SVGID_27_)" d="M782.242,54.62c-0.117,0.415-0.177,0.811-0.177,1.186c0,1.024,0.221,1.797,0.663,2.316
				c0.438,0.519,1.101,0.777,1.981,0.777c0.897,0,1.806-0.256,2.734-0.769c0.925-0.514,1.868-1.28,2.829-2.307h2.586
				c-1.036,1.53-2.479,2.816-4.326,3.853c-1.849,1.038-3.86,1.556-6.038,1.556c-1.882,0-3.427-0.414-4.641-1.244
				c-1.211-0.83-1.816-2.12-1.816-3.871c0-2.839,1.386-5.555,4.16-8.148c2.774-2.593,5.815-3.89,9.122-3.89
				c1.439,0,2.516,0.267,3.229,0.798s1.071,1.328,1.071,2.392c0,1.686-1.045,3.206-3.133,4.562
				C788.399,53.184,785.65,54.114,782.242,54.62z M782.688,52.577c1.581-0.232,2.996-0.913,4.241-2.041
				c1.244-1.128,1.867-2.237,1.867-3.326c0-0.401-0.1-0.702-0.293-0.903c-0.195-0.201-0.484-0.303-0.875-0.303
				c-0.922,0-1.821,0.584-2.703,1.75C784.044,48.922,783.297,50.529,782.688,52.577z"/>
		</g>
	</g>
	<g>
		<line fill="none" stroke="#FBB03B" stroke-width="4" stroke-miterlimit="10" x1="793" y1="11" x2="23" y2="11"/>
		<line fill="none" stroke="#F2F2F2" stroke-width="2" stroke-miterlimit="10" x1="793" y1="9" x2="23" y2="9"/>
	</g>
</g>
</svg>
