<?xml version="1.0" encoding="UTF-8" standalone="no"?>
<!-- Generator: Adobe Illustrator 16.0.4, SVG Export Plug-In . SVG Version: 6.00 Build 0)  -->

<svg
   xmlns:dc="http://purl.org/dc/elements/1.1/"
   xmlns:cc="http://creativecommons.org/ns#"
   xmlns:rdf="http://www.w3.org/1999/02/22-rdf-syntax-ns#"
   xmlns:svg="http://www.w3.org/2000/svg"
   xmlns="http://www.w3.org/2000/svg"
   xmlns:sodipodi="http://sodipodi.sourceforge.net/DTD/sodipodi-0.dtd"
   xmlns:inkscape="http://www.inkscape.org/namespaces/inkscape"
   version="1.1"
   id="Layer_1"
   x="0px"
   y="0px"
   width="417.26999"
   height="135.27858"
   viewBox="0 0 417.26999 135.27858"
   enable-background="new 0 0 500 281"
   xml:space="preserve"
   inkscape:version="0.48.2 r9819"
   sodipodi:docname="bearded-logo.svg"><metadata
   id="metadata151"><rdf:RDF><cc:Work
       rdf:about=""><dc:format>image/svg+xml</dc:format><dc:type
         rdf:resource="http://purl.org/dc/dcmitype/StillImage" /><dc:title></dc:title></cc:Work></rdf:RDF></metadata><defs
   id="defs149" /><sodipodi:namedview
   pagecolor="#ffffff"
   bordercolor="#666666"
   borderopacity="1"
   objecttolerance="10"
   gridtolerance="10"
   guidetolerance="10"
   inkscape:pageopacity="0"
   inkscape:pageshadow="2"
   inkscape:window-width="1310"
   inkscape:window-height="714"
   id="namedview147"
   showgrid="false"
   fit-margin-top="0"
   fit-margin-left="0"
   fit-margin-right="0"
   fit-margin-bottom="0"
   inkscape:zoom="0.704"
   inkscape:cx="208.635"
   inkscape:cy="67.640576"
   inkscape:window-x="0"
   inkscape:window-y="0"
   inkscape:window-maximized="0"
   inkscape:current-layer="Layer_1" />
<g
   id="g3"
   inkscape:export-filename="/Users/colin/Downloads/bearded.png"
   inkscape:export-xdpi="107.84"
   inkscape:export-ydpi="107.84"
   transform="translate(-41.365003,-72.862)">
	<g
   id="g5">
		<g
   id="g7">
			<g
   id="g9">
				<path
   d="m 217.068,92.159 c 6.451,0 13.657,3.79 13.657,14.785 v 16.31 c 0,4.3 -1.013,7.711 -4.675,10.241 3.662,2.53 4.675,5.943 4.675,10.24 v 17.828 c 0,10.996 -7.206,14.789 -13.657,14.789 H 199.37 V 92.159 h 17.698 z m -0.63,79.262 c 6.194,0 8.978,-4.805 8.978,-10.115 v -18.203 c 0,-4.931 -1.777,-7.714 -6.451,-9.105 4.674,-1.514 6.451,-4.167 6.451,-9.098 v -17.572 c 0,-5.434 -2.784,-10.115 -8.978,-10.115 h -11.502 v 74.209 h 11.502 z M 206.956,132.99 V 98.981 h 9.482 c 4.804,0 6.951,3.667 6.951,8.345 v 17.572 c 0,5.562 -2.777,8.091 -8.849,8.091 h -7.584 z m 7.585,1.899 c 6.072,0 8.849,2.526 8.849,8.214 v 18.203 c 0,4.553 -2.147,8.215 -6.951,8.215 h -9.482 v -34.632 h 7.584 z m 3.539,-27.181 c 0,-2.533 -0.756,-3.668 -2.526,-3.668 h -3.032 v 24.525 h 3.154 c 1.776,0 2.404,-1.012 2.404,-3.667 v -17.19 z m 0,35.266 c 0,-2.654 -0.628,-3.661 -2.404,-3.661 h -3.154 v 25.154 h 3.032 c 1.771,0 2.526,-1.135 2.526,-3.667 v -17.826 z"
   id="path11"
   inkscape:connector-curvature="0"
   style="fill:#5e4e3b" />
				<path
   d="M 238.61,176.352 V 92.159 h 27.435 v 12.135 H 251.76 v 23.009 h 9.478 v 11.5 h -9.478 v 25.414 h 14.285 v 12.135 H 238.61 z m 22.376,-77.117 v -1.896 h -16.812 v 73.957 h 16.812 v -1.898 h -14.792 v -35.4 h 10.746 v -1.891 H 246.194 V 99.235 h 14.792 z"
   id="path13"
   inkscape:connector-curvature="0"
   style="fill:#5e4e3b" />
				<path
   d="m 284.438,161.938 -1.647,14.414 H 271.03 l 11.26,-84.193 h 12.261 l 11.253,84.193 h -12.896 l -1.264,-14.414 h -7.206 z m 15.172,9.358 -9.606,-73.957 h -3.167 l -9.984,73.957 h 1.898 l 1.892,-14.414 h 15.299 l 1.771,14.414 h 1.897 z m -18.716,-16.312 7.464,-55.75 7.328,55.75 h -14.792 z m 9.611,-5.052 -2.026,-23.388 -2.649,23.388 h 4.675 z"
   id="path15"
   inkscape:connector-curvature="0"
   style="fill:#5e4e3b" />
				<path
   d="m 344.246,176.352 h -12.517 c -1.141,-3.285 -1.77,-6.703 -1.77,-13.02 v -18.333 c 0,-2.403 -0.635,-3.795 -2.908,-3.795 h -3.032 v 35.147 H 310.873 V 92.159 h 17.698 c 6.44,0 13.648,3.79 13.648,14.785 v 19.218 c 0,3.92 -1.011,7.207 -4.425,9.483 3.414,2.273 4.81,5.438 4.81,9.606 v 17.068 c 0.001,5.31 0.754,9.988 1.642,14.033 z m -7.082,-13.532 v -17.695 c 0,-3.664 -1.266,-7.967 -6.698,-9.358 4.679,-1.513 6.32,-4.423 6.32,-9.355 v -19.085 c 0,-5.434 -2.651,-10.115 -8.848,-10.115 h -11.505 v 74.084 h 2.021 V 136.53 h 7.591 c 5.558,0 9.1,3.032 9.1,8.595 v 17.695 c 0,2.786 0.256,5.817 0.754,8.476 h 2.028 c -0.384,-2.526 -0.763,-5.817 -0.763,-8.476 z m -18.71,-28.06 V 98.981 h 9.484 c 4.802,0 6.952,3.667 6.952,8.345 v 19.085 c 0,5.566 -2.78,8.348 -8.846,8.348 h -7.59 z m 11.128,-27.052 c 0,-2.533 -0.76,-3.668 -2.53,-3.668 h -3.032 v 26.042 h 3.157 c 1.773,0 2.405,-1.012 2.405,-3.67 v -18.704 z"
   id="path17"
   inkscape:connector-curvature="0"
   style="fill:#5e4e3b" />
				<path
   d="M 368.665,176.352 H 351.346 V 92.159 h 17.319 c 7.967,0 15.297,4.675 15.297,16.431 v 51.832 c 0,11.758 -7.33,15.93 -15.297,15.93 z m -0.631,-79.013 h -11.126 v 73.957 h 11.126 c 6.446,0 10.361,-4.174 10.361,-11.124 V 108.59 c 0.001,-6.826 -3.915,-11.251 -10.361,-11.251 z m -9.105,72.058 V 99.235 h 9.105 c 5.562,0 8.342,3.54 8.342,9.355 v 51.582 c 0,6.318 -3.161,9.226 -8.342,9.226 h -9.105 z m 12.012,-60.807 c 0,-2.908 -1.139,-4.296 -3.41,-4.296 h -3.036 v 60.045 h 3.036 c 2.271,0 3.41,-1.39 3.41,-4.426 V 108.59 z"
   id="path19"
   inkscape:connector-curvature="0"
   style="fill:#5e4e3b" />
				<path
   d="M 392.13,176.352 V 92.159 h 27.437 v 12.135 H 405.28 v 23.009 h 9.479 v 11.5 h -9.479 v 25.414 h 14.287 v 12.135 H 392.13 z m 22.38,-77.117 v -1.896 h -16.814 v 73.957 h 16.814 v -1.898 h -14.792 v -35.4 h 10.743 v -1.891 H 399.718 V 99.235 h 14.792 z"
   id="path21"
   inkscape:connector-curvature="0"
   style="fill:#5e4e3b" />
				<path
   d="M 443.335,176.352 H 426.02 V 92.159 h 17.315 c 7.971,0 15.3,4.675 15.3,16.431 v 51.832 c 0,11.758 -7.329,15.93 -15.3,15.93 z m -0.631,-79.013 h -11.125 v 73.957 h 11.125 c 6.453,0 10.369,-4.174 10.369,-11.124 V 108.59 c 0,-6.826 -3.916,-11.251 -10.369,-11.251 z m -9.099,72.058 V 99.235 h 9.099 c 5.566,0 8.349,3.54 8.349,9.355 v 51.582 c 0,6.318 -3.161,9.226 -8.349,9.226 h -9.099 z m 12.01,-60.807 c 0,-2.908 -1.138,-4.296 -3.414,-4.296 h -3.034 v 60.045 h 3.034 c 2.276,0 3.414,-1.39 3.414,-4.426 V 108.59 z"
   id="path23"
   inkscape:connector-curvature="0"
   style="fill:#5e4e3b" />
			</g>
		</g>
	</g>
	<g
   id="g25">
		<path
   d="m 154.093,157.141 c 0.999,-1.251 2.154,-2.04 3.477,-2.514 0.604,-0.215 1.202,-0.346 1.781,-0.395 -0.181,-0.166 -0.366,-0.339 -0.563,-0.521 -0.282,-0.265 -0.571,-0.531 -0.863,-0.802 -2.452,-2.27 -5.306,-4.913 -6.989,-8.318 -0.447,1.072 -1.224,2.277 -2.565,3.22 1.025,0.86 2.791,2.587 4.234,5.249 0.738,1.36 1.292,2.739 1.488,4.081 z"
   id="path27"
   inkscape:connector-curvature="0"
   style="fill:#5e4e3b" />
		<path
   d="m 108.932,129.351 c 0.476,3.747 2.073,4.008 5.31,4.533 1.561,0.252 3.501,0.566 5.622,1.406 3.882,1.534 6.97,4.064 9.955,6.512 2.242,1.838 4.394,3.6 6.633,4.66 1.896,0.884 4.581,1.2 5.94,1.197 3.632,-0.008 5.479,-1.364 6.417,-2.758 -0.931,0.438 -2.159,0.755 -3.769,0.755 -0.472,0 -0.969,-0.027 -1.479,-0.083 -5.931,-0.643 -8.054,-3.154 -11.573,-7.314 -1.48,-1.748 -3.321,-3.925 -5.848,-6.424 -4.242,-4.195 -10.272,-7.357 -14.028,-7.357 -1.137,0 -1.984,0.29 -2.519,0.863 -0.31,0.334 -0.525,0.779 -0.649,1.326 -0.179,0.681 -0.05,2.065 -0.012,2.684 z"
   id="path29"
   inkscape:connector-curvature="0"
   style="fill:#7e7262" />
		<path
   d="m 142.984,154.75 c 1.03,0.073 1.986,0.36 2.825,0.816 -1.267,-2.525 -3.32,-4.929 -7.688,-6.619 -0.2,-0.048 -0.397,-0.104 -0.594,-0.163 0.675,0.687 1.258,1.507 1.655,2.494 0.51,1.268 0.361,2.885 0.03,4.307 1.205,-0.66 2.539,-0.924 3.772,-0.835 z"
   id="path31"
   inkscape:connector-curvature="0"
   style="fill:#5e4e3b" />
		<path
   d="m 112.111,122.705 c 4.239,0 10.663,3.309 15.274,7.869 2.583,2.555 4.453,4.765 5.955,6.542 3.452,4.08 5.185,6.129 10.411,6.695 0.446,0.05 0.879,0.073 1.288,0.073 2.436,0 3.693,-0.852 4.301,-1.502 -0.523,0.161 -1.166,0.283 -1.916,0.283 -0.428,0 -0.891,-0.038 -1.384,-0.135 -3.548,-0.694 -7.019,-3.885 -10.315,-9.487 -5.398,-9.168 -12.642,-14.811 -19.379,-15.094 -2.804,-0.117 -4.786,0.502 -5.887,1.843 -0.896,1.09 -1.064,2.488 -1.042,3.495 0.743,-0.385 1.644,-0.582 2.694,-0.582 z"
   id="path33"
   inkscape:connector-curvature="0"
   style="fill:#5e4e3b" />
		<path
   d="m 119.601,155.795 c -0.842,0.983 -1.569,1.832 -2.018,3.718 -0.318,1.338 -0.177,2.727 0.073,3.842 0.082,0.359 0.208,0.671 0.349,0.945 0.984,-2.061 2.558,-4.248 4.103,-6.39 1.692,-2.345 3.441,-4.771 3.685,-6.228 0.281,-1.684 0.084,-3.014 -0.567,-3.848 -0.535,-0.686 -1.404,-1.081 -2.581,-1.176 -0.67,-0.053 -1.378,-0.021 -1.817,0.014 0.29,0.297 0.545,0.629 0.755,0.993 0.845,1.464 0.877,3.244 0.089,5.016 -0.644,1.447 -1.402,2.335 -2.071,3.114 z"
   id="path35"
   inkscape:connector-curvature="0"
   style="fill:#766958" />
		<path
   d="m 129.494,159.906 c -1.091,1.443 -2.139,2.833 -2.77,4.381 1.079,-0.962 2.422,-1.49 3.894,-1.49 1.591,0 3.193,0.408 4.572,1.21 l 0,0 c -0.045,-1.064 0.073,-2.279 0.452,-3.666 0.186,-0.685 0.763,-2.065 0.811,-2.169 0.539,-1.146 1.783,-4.499 1.085,-6.231 -0.847,-2.107 -2.857,-3.299 -4.557,-3.956 0.42,1.136 0.447,2.44 0.373,3.651 -0.21,3.439 -2.065,5.895 -3.86,8.27 z"
   id="path37"
   inkscape:connector-curvature="0"
   style="fill:#6e604f" />
		<path
   d="m 60.194,126.019 c 1.717,1.912 4.221,5.55 5.166,11.216 0.069,0.412 0.114,0.826 0.142,1.237 0.883,-1.933 1.686,-4.836 1.075,-8.416 -0.475,-2.781 -1.66,-4.435 -2.293,-5.149 -1.215,0.641 -2.591,1.015 -4.09,1.112 z"
   id="path39"
   inkscape:connector-curvature="0"
   style="fill:#5e4e3b" />
		<path
   d="m 66.999,122.72 c -0.376,0.442 -0.786,0.84 -1.226,1.196 0.74,0.885 1.81,2.512 2.385,5.014 0.267,-1.347 0.411,-2.836 0.265,-3.973 -0.164,-1.272 -0.518,-2.325 -0.822,-3.031 -0.188,0.271 -0.385,0.539 -0.602,0.794 z"
   id="path41"
   inkscape:connector-curvature="0"
   style="fill:#5e4e3b" />
		<path
   d="m 79.539,148.202 c -1.159,0.369 -1.963,1.004 -2.359,1.374 0.775,1.193 1.69,2.894 2.15,4.807 0.438,-2.094 1.354,-4.313 2.738,-6.035 -0.473,-0.207 -1.424,-0.498 -2.529,-0.146 z"
   id="path43"
   inkscape:connector-curvature="0"
   style="fill:#5e4e3b" />
		<path
   d="m 113.734,154.572 c -0.234,0.331 -0.553,0.781 -0.582,0.955 0.011,0.034 0.013,0.068 0.02,0.101 0.85,1.199 1.758,2.521 2.594,3.936 0.026,-0.154 0.056,-0.308 0.094,-0.461 0.548,-2.303 1.488,-3.4 2.396,-4.46 0.647,-0.756 1.259,-1.469 1.796,-2.682 0.552,-1.238 0.549,-2.451 -0.003,-3.407 -0.57,-0.986 -1.657,-1.633 -2.984,-1.772 -1.051,-0.11 -1.753,0.148 -2.163,0.387 0.481,0.886 0.671,1.981 0.562,3.284 -0.159,1.895 -1.068,3.18 -1.73,4.119 z"
   id="path45"
   inkscape:connector-curvature="0"
   style="fill:#5e4e3b" />
		<path
   d="m 82.752,180.996 c 1.177,-0.285 2.376,-0.325 3.524,-0.088 1.063,0.219 1.927,0.577 2.631,1.007 -0.864,-2.247 -2.125,-4.883 -3.667,-8.022 -3.201,-6.518 -5.333,-11.037 -5.995,-14.584 -0.653,2.175 -2.016,3.891 -3.074,5.029 0.657,0.191 1.319,0.518 1.933,0.975 1.133,0.838 3.067,2.838 3.293,6.786 0.167,2.897 -1.145,5.248 -3.019,6.929 1.742,0.266 3.545,1.026 4.374,1.968 z"
   id="path47"
   inkscape:connector-curvature="0"
   style="fill:#5e4e3b" />
		<path
   d="m 73.333,142.604 c 5.361,-0.695 6.712,-2.354 9.668,-5.987 1.431,-1.757 3.21,-3.945 5.933,-6.639 4.383,-4.336 10.607,-7.483 14.797,-7.483 1.181,0 2.179,0.241 2.99,0.706 0.051,-1.019 -0.081,-2.408 -0.947,-3.459 -1.073,-1.302 -3.066,-1.854 -5.924,-1.639 -7.114,0.535 -14.219,5.981 -19.495,14.941 -3.08,5.235 -6.454,8.189 -10.028,8.783 -0.451,0.074 -0.884,0.106 -1.292,0.106 -0.558,0 -1.072,-0.062 -1.544,-0.159 1.097,0.497 2.559,0.929 4.339,0.929 0.496,-0.001 1,-0.034 1.503,-0.099 z"
   id="path49"
   inkscape:connector-curvature="0"
   style="fill:#5e4e3b" />
		<path
   d="m 75.101,147.145 c 1.055,0 2.418,-0.134 4.582,-0.795 2.163,-0.664 4.666,-2.697 7.034,-4.747 2.552,-2.207 5.445,-4.709 9.502,-6.312 2.12,-0.84 4.061,-1.154 5.62,-1.406 3.238,-0.525 4.835,-0.786 5.31,-4.533 0.023,-0.259 0.203,-1.901 -0.008,-2.692 -0.127,-0.601 -0.359,-1.09 -0.701,-1.456 -0.576,-0.62 -1.488,-0.934 -2.708,-0.934 -3.708,0 -9.534,2.997 -13.551,6.969 -2.654,2.625 -4.401,4.771 -5.804,6.498 -3.064,3.766 -4.753,5.84 -10.816,6.627 -0.579,0.075 -1.16,0.111 -1.729,0.111 -1.799,0 -3.319,-0.37 -4.529,-0.848 1.496,1.711 3.98,3.518 7.798,3.518 z"
   id="path51"
   inkscape:connector-curvature="0"
   style="fill:#7e7262" />
		<path
   d="m 69.202,162.356 c -2.43,2.503 -4.942,5.089 -4.853,9.975 0.057,3.181 1.417,5.061 2.548,6.074 1.676,1.504 4.224,2.048 7.114,1.279 3.435,-0.915 5.817,-4.021 5.619,-7.484 -0.187,-3.228 -1.696,-4.81 -2.581,-5.465 -1.047,-0.778 -2.029,-0.907 -2.599,-0.771 -2.653,0.643 -3.781,2.807 -3.495,4.52 0.077,0.458 0.464,1.943 2.271,1.769 0.486,-0.046 0.92,0.312 0.965,0.799 0.047,0.487 -0.311,0.921 -0.797,0.966 -2.144,0.207 -3.829,-1.098 -4.188,-3.239 -0.405,-2.421 1.04,-5.433 4.482,-6.436 0.101,-0.107 0.228,-0.235 0.378,-0.384 1.245,-1.24 3.836,-3.821 3.787,-7.297 -0.057,-3.936 -3.291,-7.661 -3.325,-7.701 -0.017,-0.018 -0.03,-0.04 -0.045,-0.062 -1.25,-0.058 -2.373,-0.286 -3.378,-0.636 1.041,1.937 2.18,4.634 2.105,7.062 -0.091,2.998 -1.994,4.958 -4.008,7.031 z"
   id="path53"
   inkscape:connector-curvature="0"
   style="fill:#5e4e3b" />
		<path
   d="m 159.945,128.852 c 2.907,-1.117 4.766,-3.411 4.853,-5.983 0.134,-3.962 -1.412,-8.848 -3.846,-12.158 -3.936,-5.351 -3.467,-8.153 -2.194,-9.599 -0.94,-1.128 -1.916,-2.843 -2.327,-5.322 -0.606,0.589 -1.367,1.778 -1.713,4.144 -0.819,5.618 1.499,9.277 3.545,12.506 1.336,2.111 2.599,4.105 2.634,6.279 0.064,3.935 -2.021,4.999 -2.921,5.273 -0.364,0.112 -0.744,0.166 -1.123,0.166 -1.324,0 -2.646,-0.652 -3.354,-1.741 -0.783,-1.205 -0.619,-2.649 0.436,-3.869 0.32,-0.369 0.881,-0.408 1.25,-0.088 0.37,0.32 0.41,0.879 0.09,1.249 -0.54,0.622 -0.637,1.208 -0.29,1.742 0.48,0.738 1.59,1.116 2.474,0.847 1.105,-0.338 1.697,-1.599 1.665,-3.55 -0.01,-0.714 -0.214,-1.433 -0.541,-2.176 -0.009,-0.018 -0.022,-0.032 -0.031,-0.048 -0.539,-1.024 -1.76,-2.304 -3.429,-2.541 -1.452,-0.207 -3.172,0.289 -4.561,1.727 -3.013,3.125 -2.763,8.203 0.288,11.364 2.738,2.837 6.493,2.778 9.095,1.778 z"
   id="path55"
   inkscape:connector-curvature="0"
   style="fill:#6e604f" />
		<path
   d="m 155.372,112.227 c 0.264,0.038 0.519,0.095 0.766,0.166 -1.466,-2.365 -2.985,-5.162 -3.301,-8.805 -0.71,0.836 -1.593,2.339 -1.81,4.777 -0.247,2.807 0.25,4.161 0.509,4.657 1.495,-0.854 2.845,-0.937 3.836,-0.795 z"
   id="path57"
   inkscape:connector-curvature="0"
   style="fill:#8e8376" />
		<path
   d="m 151.96,130.119 c -0.836,-0.448 -1.641,-1.043 -2.388,-1.816 -0.389,-0.403 -0.733,-0.83 -1.042,-1.274 -0.374,0.891 -0.778,2.575 -0.542,5.513 0.2,2.504 0.853,4.19 1.497,5.281 0.105,-3.953 1.509,-6.446 2.475,-7.704 z"
   id="path59"
   inkscape:connector-curvature="0"
   style="fill:#5e4e3b" />
		<path
   d="m 165.375,88.843 c 0.187,-0.066 0.381,-0.123 0.581,-0.172 0.972,-0.237 2.111,-0.244 3.268,0.029 0.321,-0.508 0.839,-1.547 0.769,-2.895 -0.045,-0.854 -0.253,-1.588 -0.481,-2.153 -0.79,1.291 -1.735,2.374 -2.607,3.362 -0.551,0.626 -1.077,1.221 -1.53,1.829 z"
   id="path61"
   inkscape:connector-curvature="0"
   style="fill:#5e4e3b" />
		<path
   d="m 151.047,153.903 c -1.684,-3.105 -3.885,-4.817 -4.39,-5.187 -1.02,0.396 -2.256,0.652 -3.747,0.701 2.936,2.13 4.401,4.811 5.428,7.554 0.974,2.595 0.989,4.879 0.041,6.434 -0.681,1.118 -1.821,1.801 -3.298,1.975 -0.155,0.019 -0.304,0.025 -0.448,0.025 -2.198,0 -3.184,-2.021 -3.402,-3.16 -0.091,-0.481 0.222,-0.945 0.704,-1.038 0.482,-0.093 0.946,0.224 1.037,0.705 0.039,0.188 0.424,1.881 1.902,1.708 0.929,-0.111 1.6,-0.493 1.993,-1.138 0.317,-0.521 0.461,-1.216 0.438,-2.027 -0.384,-2.724 -2.707,-3.813 -4.447,-3.938 -1.963,-0.137 -4.583,0.901 -5.508,4.291 -0.746,2.743 -0.301,4.983 1.002,6.692 1.486,1.945 3.928,2.83 5.85,2.83 3.163,0 8.12,-2.824 8.563,-7.655 0.366,-3.98 -0.182,-5.939 -1.718,-8.772 z"
   id="path63"
   inkscape:connector-curvature="0"
   style="fill:#7e7262" />
		<path
   d="m 162.45,81.019 c 0.042,-0.046 0.084,-0.092 0.126,-0.139 0.89,-0.973 1.977,-2.109 2.723,-3.031 0.013,-0.152 -0.312,-0.949 -1.126,-2.112 -0.493,-0.705 -1.798,-1.758 -3.532,-2.875 0.891,1.612 1.741,3.621 1.863,5.568 0.061,0.975 0.029,1.835 -0.054,2.589 z"
   id="path65"
   inkscape:connector-curvature="0"
   style="fill:#5e4e3b" />
		<path
   d="m 165.094,78.009 c 0,0 -0.002,0.005 -0.005,0.013 0.003,-0.004 0.005,-0.008 0.009,-0.012 l -0.004,-0.001 z"
   id="path67"
   inkscape:connector-curvature="0"
   style="fill:#5e4e3b" />
		<path
   d="m 152.046,174.391 c 0.031,0.005 0.06,0.011 0.09,0.014 -0.948,-1.478 -1.47,-3.254 -1.738,-4.469 -1.31,0.992 -2.821,1.637 -4.252,1.948 1.14,0.914 3.083,2.089 5.9,2.507 z"
   id="path69"
   inkscape:connector-curvature="0"
   style="fill:#5e4e3b" />
		<path
   d="m 95.839,148.098 c -1.23,0.975 -2.713,2.77 -2.791,5.789 -0.091,3.527 2.764,6.92 3.889,8.114 0.875,-0.767 1.902,-1.324 3.077,-1.668 -2.183,-1.993 -3.624,-4.253 -3.19,-8.533 0.219,-2.145 1.349,-3.861 2.66,-5.023 -0.087,-0.023 -0.181,-0.048 -0.292,-0.07 -0.37,-0.076 -1.865,0.213 -3.353,1.391 z"
   id="path71"
   inkscape:connector-curvature="0"
   style="fill:#5e4e3b" />
		<path
   d="m 103.078,146.849 c -1.177,0 -4.17,1.99 -4.49,5.131 -0.393,3.857 0.773,5.575 3.704,7.966 0.025,-0.002 0.048,-0.004 0.073,-0.006 1.682,-0.096 3.187,0.088 4.488,0.529 -0.069,-0.076 -0.137,-0.151 -0.207,-0.227 -1.972,-2.162 -4.01,-4.396 -4.204,-7.62 -0.146,-2.44 0.431,-4.373 1.349,-5.7 -0.181,-0.043 -0.414,-0.073 -0.713,-0.073 z"
   id="path73"
   inkscape:connector-curvature="0"
   style="fill:#7e7262" />
		<path
   d="m 109.722,149.966 c 0.065,0.822 1.082,2.335 2.27,4.006 0.093,-0.14 0.194,-0.281 0.294,-0.424 0.606,-0.857 1.293,-1.829 1.41,-3.242 0.2,-2.396 -0.864,-3.156 -1.932,-3.584 -0.468,-0.187 -1.139,0.011 -1.595,0.203 l 0.013,0.018 c 0,0 0.019,-0.011 0.047,-0.036 -0.006,0.007 -0.699,0.662 -0.507,3.059 z"
   id="path75"
   inkscape:connector-curvature="0"
   style="fill:#6e604f" />
		<path
   d="m 93.446,146.645 c -2.293,0 -4.513,2.608 -5.525,5.197 -1.103,2.819 -0.774,6.027 0.98,9.535 0.759,1.521 2.956,5.439 4.865,8.813 0.011,-2.729 0.698,-5.11 1.976,-6.871 -1.224,-1.275 -4.576,-5.167 -4.467,-9.477 0.097,-3.685 2.2,-5.873 3.722,-7.084 -0.324,-0.048 -1.011,-0.107 -1.518,-0.114 -0.011,0.001 -0.022,0.001 -0.033,0.001 z"
   id="path77"
   inkscape:connector-curvature="0"
   style="fill:#7e7262" />
		<path
   d="m 130.179,185.588 c -1.622,-0.728 -3.886,-1.894 -6.484,-3.644 -3.229,-2.175 -4.879,-5.412 -5.721,-8.033 -0.435,1.128 -1.035,2.152 -1.798,3.058 0.033,0.074 0.061,0.152 0.072,0.234 0.012,0.079 0.814,4.995 7.307,9.48 1.298,0.898 2.341,1.967 3.161,3.13 0,0 -10e-4,0 -0.003,-0.003 0.747,-2.029 2.075,-3.449 3.466,-4.222 z"
   id="path79"
   inkscape:connector-curvature="0"
   style="fill:#7e7262" />
		<path
   d="m 114.504,176.187 c 1.586,-1.688 2.447,-3.965 2.53,-6.639 0.004,-0.559 0.004,-1.084 -0.039,-1.579 -0.374,-4.467 -3.449,-8.772 -5.929,-12.243 -1.676,-2.34 -2.996,-4.188 -3.11,-5.618 -0.133,-1.643 0.088,-2.73 0.379,-3.442 -0.336,-0.056 -0.773,-0.08 -1.316,-0.01 -1.509,0.195 -3.011,2.491 -2.81,5.859 0.156,2.599 1.899,4.509 3.745,6.533 2.187,2.395 4.445,4.871 4.274,8.673 0.017,0.723 -0.113,1.399 -0.32,2.009 -0.549,1.915 -1.756,3.354 -3.462,4.063 -0.71,0.296 -1.456,0.44 -2.197,0.44 -1.369,0 -2.723,-0.493 -3.814,-1.438 -1.391,-1.206 -1.875,-3.002 -1.293,-4.803 0.369,-1.142 1.232,-2.337 2.333,-2.436 0.488,-0.042 0.918,0.316 0.961,0.805 0.044,0.485 -0.316,0.707 -0.803,0.96 -0.149,0.049 -0.686,0.596 -0.888,1.526 -0.126,0.589 -0.185,1.711 0.851,2.606 1.172,1.015 2.771,1.284 4.171,0.703 0.323,-0.136 0.618,-0.31 0.888,-0.521 0.025,-0.032 0.05,-0.064 0.08,-0.092 0.013,-0.012 1.012,-0.989 1.483,-2.354 0.118,-0.423 0.199,-0.877 0.231,-1.36 0.005,-0.059 0.003,-0.115 0.005,-0.174 -0.007,-0.145 -0.022,-0.288 -0.048,-0.436 -0.861,-4.881 -4.795,-5.689 -7.942,-5.513 -0.058,0.004 -0.385,0.031 -0.541,0.047 -1.837,0.208 -3.307,0.922 -4.374,2.131 -1.487,1.686 -2.189,4.331 -1.975,7.449 0.271,3.945 3.041,8.162 10.004,8.162 3.806,0.003 6.891,-1.141 8.926,-3.308 z"
   id="path81"
   inkscape:connector-curvature="0"
   style="fill:#766958" />
		<path
   d="m 99.809,186.73 c 1.946,-1.985 3.647,-3.728 3.942,-5.556 -1.89,-0.201 -3.57,-0.722 -4.994,-1.543 0.435,1.146 0.778,2.301 0.902,3.316 0.177,1.456 0.087,2.849 -0.102,4.043 0.085,-0.088 0.169,-0.174 0.252,-0.26 z"
   id="path83"
   inkscape:connector-curvature="0"
   style="fill:#5e4e3b" />
		<path
   d="m 50.699,161.373 c -0.087,0 -0.174,0 -0.263,-0.002 -0.411,-0.008 -0.814,-0.037 -1.211,-0.08 -0.164,0.382 -0.536,1.597 -0.536,4.799 0,2.3 0.948,3.852 1.819,4.791 -0.009,-3.965 1.618,-7.472 3.146,-9.888 -0.917,0.253 -1.903,0.38 -2.955,0.38 z"
   id="path85"
   inkscape:connector-curvature="0"
   style="fill:#5e4e3b" />
		<path
   d="m 163.453,148.954 c -2.656,-2.205 -5.403,-4.485 -6.741,-8.415 -1.637,-4.807 -0.99,-8.016 -0.575,-9.297 -0.817,-0.035 -1.646,-0.167 -2.466,-0.415 -0.775,0.863 -2.588,3.405 -2.408,8.125 0.214,5.578 4.28,9.339 7.866,12.656 0.295,0.272 0.585,0.542 0.87,0.809 0.668,0.628 1.238,1.14 1.739,1.594 2.389,2.161 3.11,2.813 3.11,5.353 0,1.554 -0.459,2.74 -1.365,3.53 -0.946,0.825 -2.121,0.954 -2.76,0.954 -0.268,0 -0.441,-0.024 -0.464,-0.026 -0.484,-0.066 -0.824,-0.515 -0.756,-0.997 0.066,-0.487 0.512,-0.825 0.999,-0.759 0.004,-0.002 1.098,0.126 1.827,-0.517 0.496,-0.438 0.746,-1.173 0.746,-2.186 0,-0.965 -0.074,-1.465 -0.519,-2.061 -0.106,-0.106 -0.146,-0.171 -0.229,-0.268 -1.082,-1.235 -2.836,-1.212 -4.158,-0.739 -2.13,0.763 -4.251,2.915 -4.188,6.013 0.08,3.849 3.177,7.736 6.824,7.968 3.676,0.23 5.294,-0.488 7.307,-2.752 1.85,-2.081 2.271,-4.467 2.039,-7.838 -0.376,-5.488 -3.447,-8.035 -6.698,-10.732 z"
   id="path87"
   inkscape:connector-curvature="0"
   style="fill:#665745" />
		<path
   d="m 166.853,142.733 c -1.488,-1.293 -3.025,-2.632 -4.341,-4.58 -2.256,-3.348 -2.636,-5.886 -2.554,-7.431 -0.604,0.19 -1.247,0.338 -1.917,0.429 -0.014,0.083 -0.035,0.17 -0.075,0.252 -0.027,0.055 -1.431,3.121 0.424,8.565 1.176,3.457 3.614,5.479 6.194,7.622 2.858,2.371 5.798,4.811 6.911,9.247 0.125,-0.104 0.255,-0.237 0.379,-0.42 0.542,-0.784 1.021,-2.466 0.236,-6.003 -0.855,-3.852 -2.895,-5.625 -5.257,-7.681 z"
   id="path89"
   inkscape:connector-curvature="0"
   style="fill:#7e7262" />
		<path
   d="m 161.123,172.118 c -0.188,0 -0.372,-0.005 -0.55,-0.018 -3.022,-0.183 -5.896,-2.558 -7.361,-5.644 -0.338,0.754 -0.772,1.429 -1.278,2.029 0.123,0.839 0.792,4.688 2.808,6.224 1.675,1.276 3.64,1.906 5.13,1.641 0.935,-0.165 1.686,-0.682 2.23,-1.537 0.726,-1.134 0.682,-2.199 0.56,-2.814 -0.537,0.079 -1.056,0.119 -1.539,0.119 z"
   id="path91"
   inkscape:connector-curvature="0"
   style="fill:#7e7262" />
		<path
   d="m 168.361,136.939 c -2.028,-2.496 -4.282,-5.281 -5.198,-7.852 -0.403,0.302 -0.834,0.583 -1.298,0.833 -0.178,0.605 -0.653,3.133 2.118,7.242 1.184,1.757 2.632,3.018 4.033,4.234 1.057,0.92 2.128,1.853 3.081,2.993 0.291,-1.273 0.443,-3.29 -0.812,-5.006 -0.529,-0.724 -1.206,-1.558 -1.924,-2.444 z"
   id="path93"
   inkscape:connector-curvature="0"
   style="fill:#5e4e3b" />
		<path
   d="m 135.108,179.925 c -1.721,1.25 -4.052,2.045 -7.12,2.045 -0.345,0 -0.686,-0.018 -1.024,-0.055 3.717,2.195 6.314,2.994 6.345,3.005 0.022,0.005 0.042,0.018 0.062,0.026 2.446,0.268 4.821,1.821 5.12,4.922 0.274,2.822 -1.583,4.908 -3.46,5.224 -1.213,0.205 -2.819,-0.335 -3.347,-2.526 -0.115,-0.476 0.176,-0.954 0.653,-1.068 0.476,-0.112 0.955,0.179 1.069,0.652 0.15,0.622 0.503,1.337 1.331,1.193 0.953,-0.157 2.175,-1.396 1.99,-3.306 -0.241,-2.481 -2.378,-3.36 -4.134,-3.36 -1.469,0 -4.078,1.592 -4.626,5.351 0.831,1.884 1.184,3.873 1.147,5.71 0.25,0.339 0.535,0.646 0.857,0.919 1.455,1.235 3.576,1.695 5.976,1.303 5.173,-0.85 7.904,-4.662 7.49,-10.458 -0.432,-6.045 -7.415,-9.191 -8.329,-9.577 z"
   id="path95"
   inkscape:connector-curvature="0"
   style="fill:#5e4e3b" />
		<path
   d="m 151.787,176.144 c -4.626,-0.688 -7.19,-3.133 -8.008,-4.052 -1.346,-0.068 -3.005,-0.469 -4.514,-1.346 0.06,0.635 0.489,3.382 3.424,5.435 1.022,0.718 2.012,1.298 2.968,1.859 2.425,1.424 4.717,2.767 6.248,5.738 0.21,0.405 0.385,0.812 0.529,1.215 0.584,-0.009 1.74,-0.269 3.063,-1.868 1.003,-1.213 1.313,-2.777 0.812,-4.084 -0.584,-1.52 -2.19,-2.55 -4.522,-2.897 z"
   id="path97"
   inkscape:connector-curvature="0"
   style="fill:#5e4e3b" />
		<path
   d="m 150.852,185.849 c -0.125,-0.403 -0.295,-0.822 -0.521,-1.259 -1.298,-2.514 -3.183,-3.618 -5.569,-5.021 -0.988,-0.578 -2.007,-1.178 -3.088,-1.935 -1.378,-0.964 -2.304,-2.066 -2.925,-3.104 -0.408,1.479 -1.124,2.897 -2.202,4.099 2.297,1.103 8.216,4.53 8.659,10.749 0.108,1.511 0.02,2.913 -0.247,4.195 0.736,-0.026 1.891,-0.239 3.199,-1.11 1.213,-0.81 3.641,-2.903 2.792,-6.27 -0.056,-0.107 -0.091,-0.224 -0.098,-0.344 z"
   id="path99"
   inkscape:connector-curvature="0"
   style="fill:#7e7262" />
		<path
   d="m 166.771,111.078 c -0.568,-0.545 -1.156,-1.108 -1.739,-1.756 -1.859,-2.065 -1.979,-4.228 -1.906,-5.258 -1.13,-0.371 -2.184,-0.946 -3.102,-1.697 -0.967,1.294 -0.129,3.916 2.354,7.293 0.803,1.09 2.223,3.765 2.819,5.067 0.05,0.038 -0.042,0.01 0,0.06 0.017,0.021 0.774,0.446 3.484,3.126 0.196,0.193 0.739,0.869 0.908,1.074 0.231,-0.564 0.447,-1.517 0.282,-2.997 -0.24,-2.173 -1.501,-3.382 -3.1,-4.912 z"
   id="path101"
   inkscape:connector-curvature="0"
   style="fill:#8e8376" />
		<path
   d="m 172.48,92.68 c -1.714,-2.377 -4.29,-2.729 -6.106,-2.288 -1.379,0.336 -2.274,1.235 -2.458,2.469 -0.032,0.222 -0.052,0.433 -0.06,0.635 0.104,1.51 0.727,2.447 1.765,2.61 0.897,0.141 1.708,-0.352 1.814,-0.754 0.127,-0.472 0.614,-0.753 1.087,-0.625 0.473,0.127 0.752,0.614 0.625,1.086 -0.333,1.236 -1.665,2.237 -3.189,2.208 -0.217,-0.008 -0.405,-0.037 -0.568,-0.061 -0.154,-0.022 -1.528,-0.253 -2.476,-1.526 -0.577,-0.775 -0.856,-1.742 -0.834,-2.886 -0.017,-0.313 -0.019,-0.65 -0.001,-1.011 0.142,-2.889 1.846,-4.824 3.494,-6.695 1.225,-1.39 2.491,-2.827 3.242,-4.731 0.52,-1.314 0.882,-5.732 0.319,-7.276 -0.81,2.993 -3.458,6.277 -5.251,8.241 -2.633,2.882 -5.355,5.863 -5.743,8.964 -0.474,3.792 0.234,6.912 2.047,9.023 1.43,1.665 3.533,2.655 5.772,2.717 2.944,0.082 5.471,-1.328 6.762,-3.768 1.087,-2.051 0.98,-4.64 -0.241,-6.332 z"
   id="path103"
   inkscape:connector-curvature="0"
   style="fill:#766958" />
		<path
   d="m 167.998,109.798 c 0.436,0.417 0.865,0.83 1.269,1.259 0.194,-1.059 0.364,-2.823 -0.199,-4.373 -0.476,-1.31 -0.814,-1.977 -1.009,-2.301 -0.599,0.112 -1.218,0.171 -1.854,0.171 -0.098,0 -0.195,-0.001 -0.293,-0.004 -0.347,-0.01 -0.692,-0.038 -1.033,-0.083 -0.009,0.797 0.189,2.245 1.468,3.668 0.541,0.6 1.106,1.14 1.651,1.663 z"
   id="path105"
   inkscape:connector-curvature="0"
   style="fill:#5e4e3b" />
		<path
   d="m 168.333,128.875 c -0.458,-0.555 -0.977,-1.183 -1.553,-1.953 -0.289,-0.386 -0.568,-0.854 -0.814,-1.317 -0.328,0.767 -0.782,1.485 -1.351,2.139 0.527,2.414 3.064,5.546 5.12,8.08 0.15,0.183 0.295,0.364 0.441,0.544 0.52,-0.47 1.165,-1.582 0.354,-4.02 -0.454,-1.36 -1.147,-2.201 -2.197,-3.473 z"
   id="path107"
   inkscape:connector-curvature="0"
   style="fill:#7e7262" />
		<path
   d="m 121.892,187.83 c -5.74,-3.482 -6.638,-7.619 -7.178,-9.435 -0.83,0.669 -1.77,1.229 -2.807,1.668 0.329,1.175 1.245,4.014 3.11,6.912 1.214,1.886 2.809,3.244 4.35,4.557 2.088,1.777 4.06,3.459 4.312,6.05 0.147,1.508 -0.722,2.988 -2.065,3.517 -0.322,0.127 -0.646,0.187 -0.964,0.187 -0.766,0 -1.485,-0.358 -2.002,-1.031 -0.298,-0.392 -0.224,-0.945 0.164,-1.244 0.389,-0.297 0.946,-0.224 1.244,0.166 0.251,0.325 0.547,0.417 0.909,0.274 0.52,-0.206 1.031,-0.869 0.951,-1.697 -0.06,-0.617 -0.269,-1.171 -0.591,-1.699 -0.045,-0.041 -0.088,-0.088 -0.127,-0.14 -0.795,-1.077 -2.408,-1.574 -3.671,-1.135 -1.348,0.471 -2.788,2.25 -2.816,4.579 -0.029,2.325 0.549,3.748 1.921,4.938 1.784,1.547 4.141,1.5 5.671,1.144 2.51,-0.585 4.673,-2.927 5.246,-5.941 0.676,-3.555 -0.305,-8.422 -5.657,-11.67 z"
   id="path109"
   inkscape:connector-curvature="0"
   style="fill:#5e4e3b" />
		<path
   d="m 165.989,117.646 c 0.411,1.719 0.616,3.451 0.582,5.078 0.038,0.056 0.072,0.114 0.097,0.178 0.008,0.021 0.758,1.926 1.53,2.957 0.552,0.736 1.056,1.349 1.502,1.887 0.161,0.197 0.317,0.387 0.469,0.573 0.148,-0.144 0.333,-0.4 0.482,-0.852 0.345,-1.028 -0.031,-4.879 -2.923,-8.005 -0.645,-0.696 -1.209,-1.227 -1.739,-1.816 z"
   id="path111"
   inkscape:connector-curvature="0"
   style="fill:#5e4e3b" />
		<path
   d="m 64.37,154.532 c 0.094,-2.402 -0.733,-4.676 -1.332,-5.984 -0.823,1.622 -1.579,2.729 -1.77,3 -0.535,2.403 -1.528,4.981 -3.357,6.898 -0.121,0.129 -0.246,0.252 -0.372,0.373 -0.005,0.004 -0.006,0.007 -0.012,0.012 -0.061,0.063 -6.166,6.438 -5.13,13.745 0.597,4.214 2.098,5.918 3.18,6.606 -0.678,-3.253 -0.505,-7.234 0.98,-11.117 1.351,-3.532 3.262,-5.854 4.796,-7.719 1.637,-1.99 2.93,-3.56 3.017,-5.814 z"
   id="path113"
   inkscape:connector-curvature="0"
   style="fill:#5e4e3b" />
		<path
   d="m 51.832,99.716 c 3.758,-5.637 4.511,-8.577 4.48,-10.05 -0.028,-1.457 -0.801,-2.434 -1.45,-3.001 -0.109,0.325 -0.213,0.612 -0.303,0.852 -0.852,2.251 -4.2,6.706 -6.201,9.367 l -0.392,0.521 c -1.75,2.332 -2.38,3.759 -1.759,6.562 0.305,1.368 1.294,2.107 2.011,2.473 1.082,-2.925 2.685,-5.332 3.614,-6.724 z"
   id="path115"
   inkscape:connector-curvature="0"
   style="fill:#5e4e3b" />
		<path
   d="m 52.161,127.663 c 2.036,1.8 4.139,3.664 5.685,5.983 2.617,3.931 3.633,7.748 3.941,10.824 0.025,0.073 0.043,0.146 0.048,0.224 0.003,0.059 0.021,0.325 0.028,0.751 0.027,0.475 0.038,0.931 0.037,1.359 1.159,-2.528 2.261,-5.985 1.712,-9.279 -1.222,-7.331 -5.337,-11.015 -6.081,-11.627 -5.747,-0.924 -9.24,-6.041 -10.216,-11.2 -0.138,-0.727 -0.206,-1.448 -0.219,-2.161 -0.753,0.84 -1.549,2.217 -1.606,4.304 -0.133,4.797 3.172,7.723 6.671,10.822 z"
   id="path117"
   inkscape:connector-curvature="0"
   style="fill:#7e7262" />
		<path
   d="m 118.195,192.862 c -1.558,-1.327 -3.318,-2.83 -4.668,-4.928 -1.861,-2.893 -2.83,-5.682 -3.244,-7.099 0.181,0.987 0.228,2.679 -0.567,5.197 -0.629,2.001 -1.897,3.447 -3.206,4.678 0.049,-0.002 0.1,-0.002 0.149,-0.002 2.561,0 6.031,1.521 7.647,4.729 0.82,-1.499 1.977,-2.103 2.636,-2.331 0.404,-0.139 0.826,-0.217 1.253,-0.244 z"
   id="path119"
   inkscape:connector-curvature="0"
   style="fill:#5e4e3b" />
		<path
   d="m 47.534,95.029 c 1.878,-2.508 4.681,-6.328 5.367,-8.139 0.141,-0.371 0.364,-0.999 0.585,-1.771 0.012,-0.077 0.031,-0.154 0.064,-0.228 0.529,-1.918 0.999,-4.609 0.227,-6.519 -0.329,-0.813 -0.936,-2.038 -1.559,-3.235 0.044,3.196 -0.414,7.453 -2.733,10.26 -3.779,4.571 -4.01,5.609 -3.3,7.738 0.338,1.013 0.933,1.594 1.349,1.894 z"
   id="path121"
   inkscape:connector-curvature="0"
   style="fill:#7e7262" />
		<path
   d="m 56.628,157.226 c 3.027,-3.178 3.438,-8.708 3.461,-11.168 -0.102,-3.037 -0.892,-7.183 -3.72,-11.429 -1.416,-2.128 -3.433,-3.912 -5.383,-5.639 -1.923,-1.704 -3.882,-3.438 -5.282,-5.521 -0.371,0.858 -0.764,2.287 -0.709,4.44 0.08,3.192 2.065,4.872 4.364,6.817 0.933,0.788 1.896,1.603 2.756,2.553 3.022,3.345 5.19,6.31 3.389,11.445 -0.911,2.597 -3.298,3.755 -5.188,3.755 -0.045,0 -0.091,0 -0.135,-0.002 -1.601,-0.049 -2.834,-0.913 -3.22,-2.26 -0.134,-0.47 0.138,-0.96 0.609,-1.095 0.469,-0.135 0.961,0.14 1.095,0.609 0.227,0.793 1.065,0.944 1.491,0.97 0.045,-0.017 0.091,-0.034 0.141,-0.044 0.584,-0.133 0.919,-0.619 1.036,-1.321 0.222,-1.335 0.185,-3.103 -1.887,-4.458 -1.58,-1.034 -3.802,-0.871 -5.976,0.719 -1.862,1.36 -2.651,5.136 -1.701,8.144 1.199,3.795 4.488,5.775 8.702,5.857 2.544,0.053 4.609,-0.747 6.157,-2.372 z"
   id="path123"
   inkscape:connector-curvature="0"
   style="fill:#5e4e3b" />
		<path
   d="m 47.647,84.843 c 0.152,-0.187 0.308,-0.378 0.472,-0.575 0.685,-0.83 1.178,-1.833 1.529,-2.908 -0.446,-0.197 -1.023,-0.548 -1.737,-1.169 -0.699,-0.608 -1.258,-1.742 -1.676,-2.866 -0.178,1.086 -0.282,2.394 -0.151,3.785 0.206,2.178 1.022,3.251 1.563,3.733 z"
   id="path125"
   inkscape:connector-curvature="0"
   style="fill:#6e604f" />
		<path
   d="m 48.09,142.609 c 0.796,0.148 1.8,0.418 2.639,1.061 2.128,1.627 2.63,3.512 2.382,5.711 0.301,-0.349 0.552,-0.762 0.721,-1.241 1.484,-4.235 -0.237,-6.579 -3.032,-9.672 -0.78,-0.862 -1.698,-1.637 -2.586,-2.389 -0.592,-0.501 -1.189,-1.007 -1.754,-1.543 -0.396,0.603 -0.936,1.762 -0.91,3.572 0.043,2.869 1.794,4.089 2.54,4.501 z"
   id="path127"
   inkscape:connector-curvature="0"
   style="fill:#7e7262" />
		<path
   d="m 97.9,183.163 c -0.228,-1.87 -1.366,-4.409 -2.312,-6.261 -0.056,-0.056 -0.106,-0.12 -0.147,-0.19 -0.271,-0.474 -6.666,-11.619 -8.126,-14.542 -1.987,-3.976 -2.34,-7.667 -1.046,-10.974 0.627,-1.603 1.63,-3.205 2.89,-4.399 -0.611,0.027 -1.45,0.146 -2.583,0.453 -3.783,1.027 -5.944,6.771 -5.769,10.276 0.172,3.441 2.497,8.405 6.022,15.585 2.686,5.465 4.555,9.491 5.02,12.767 0.13,0.978 0.111,2.408 -0.052,3.187 -0.718,3.45 -2.735,4.528 -3.874,4.867 -0.447,0.13 -0.91,0.194 -1.368,0.194 -1.198,0 -2.365,-0.437 -3.15,-1.23 -0.779,-0.785 -1.052,-1.806 -0.748,-2.796 0.144,-0.469 0.639,-0.731 1.105,-0.588 0.469,0.144 0.732,0.64 0.588,1.106 -0.111,0.363 -0.005,0.709 0.313,1.031 0.516,0.521 1.598,0.925 2.756,0.58 1.312,-0.387 2.25,-1.638 2.642,-3.527 0.156,-0.749 0.167,-1.565 0.053,-2.461 -0.217,-0.814 -1.079,-2.957 -4.196,-3.598 -1.874,-0.386 -3.952,0.169 -5.702,1.521 -2.002,1.545 -3.228,3.887 -3.362,6.427 -0.255,4.796 1.735,10.124 8.089,10.697 4.977,0.447 7.741,-3.062 8.385,-3.999 0.5,-3.171 1.563,-5.034 3.793,-7.448 0.291,-0.733 1.151,-3.622 0.779,-6.678 z"
   id="path129"
   inkscape:connector-curvature="0"
   style="fill:#6e604f" />
		<path
   d="m 75.085,190.497 c 0.163,-3.054 1.639,-5.874 4.049,-7.736 0.542,-0.418 1.112,-0.772 1.699,-1.064 -0.962,-0.567 -2.831,-1.207 -4.741,-0.938 -0.146,0.02 -0.286,0.046 -0.426,0.077 -0.561,0.159 -1.135,0.375 -1.648,0.653 -1.513,0.922 -2.574,2.628 -3.108,5.047 -0.61,2.76 -0.3,5.086 0.923,6.913 1.131,1.688 2.846,2.661 4.163,3.196 -0.707,-1.771 -1.033,-3.845 -0.911,-6.148 z"
   id="path131"
   inkscape:connector-curvature="0"
   style="fill:#5e4e3b" />
		<path
   d="m 66.546,180.386 c -0.012,0.012 -1.133,0.411 -1.616,3.74 -0.254,1.752 0.044,3.182 0.884,4.249 0.874,1.11 2.18,1.642 3.074,1.889 -0.13,-1.27 -0.035,-2.644 0.289,-4.111 0.402,-1.814 1.038,-3.182 1.791,-4.21 -1.524,-0.066 -3.085,-0.619 -4.422,-1.557 z"
   id="path133"
   inkscape:connector-curvature="0"
   style="fill:#7e7262" />
		<path
   d="m 65.165,179.188 c -1.25,-1.331 -2.529,-3.498 -2.588,-6.823 -0.102,-5.624 2.796,-8.607 5.354,-11.242 1.845,-1.899 3.438,-3.54 3.508,-5.852 0.114,-3.717 -3.358,-8.561 -3.394,-8.608 -0.002,-0.004 -0.004,-0.008 -0.006,-0.014 -1.368,-1.006 -2.367,-2.183 -3.055,-3.181 -0.273,1.076 -0.626,2.099 -1.006,3.03 0.182,0.306 2.326,3.968 2.165,8.104 -0.112,2.85 -1.645,4.712 -3.418,6.871 -1.53,1.857 -3.263,3.964 -4.51,7.224 -2.667,6.971 -0.662,13.685 1.949,15.43 1.187,0.794 2.336,0.758 2.922,0.661 0.017,-0.297 0.047,-0.604 0.091,-0.916 0.403,-2.789 1.268,-4.083 1.988,-4.684 z"
   id="path135"
   inkscape:connector-curvature="0"
   style="fill:#6e604f" />
		<path
   d="m 113.405,198.771 c -0.329,-4.288 -4.135,-6.291 -6.746,-6.291 -1.085,0 -2.119,0.456 -2.913,1.283 -0.591,0.616 -0.995,1.396 -1.169,2.203 -0.005,0.083 -0.019,0.163 -0.045,0.236 -0.042,0.263 -0.062,0.528 -0.051,0.789 0.056,1.335 0.41,2.195 1.052,2.56 1.086,0.614 2.921,0.481 3.299,-0.445 0.185,-0.452 1.104,-0.465 1.337,-0.036 0.234,0.432 0.061,0.861 -0.206,1.271 -0.446,0.687 -3.059,2.01 -5.184,0.804 -1.21,-0.685 -2.324,-2.003 -2.25,-3.991 0.145,-3.885 1.988,-5.253 3.676,-6.746 1.55,-1.373 3.154,-2.794 3.82,-4.906 0.754,-2.393 0.629,-3.827 0.492,-4.465 -0.939,0.154 -1.92,0.237 -2.939,0.237 -0.017,0 -0.035,-0.002 -0.052,-0.002 0,0 -0.007,0.138 -0.068,0.4 -0.251,1.24 -0.927,2.386 -1.815,3.501 -0.731,0.98 -1.745,2.118 -3.15,3.377 -3.091,2.771 -5.111,5.481 -5.527,8.765 -0.244,1.979 -0.126,5.086 2.005,7.532 1.724,1.977 4.113,3.265 7.408,3.293 5.311,0.049 8.589,-3.034 9.004,-7.728 -10e-4,-0.034 0.073,-1.007 0.022,-1.641 z"
   id="path137"
   inkscape:connector-curvature="0"
   style="fill:#665745" />
		<path
   d="m 137.435,171.251 c 0,-0.868 -0.125,-1.646 -0.349,-2.338 -0.052,-0.133 -0.12,-0.278 -0.184,-0.414 -0.272,-0.577 -0.662,-1.184 -1.176,-1.889 -1.328,-1.398 -3.247,-2.063 -5.087,-2.063 -2.132,0 -3.58,1.33 -4.037,2.245 -0.855,1.707 -0.741,3.949 0.047,5.276 0.054,0.082 0.113,0.162 0.177,0.237 0.828,0.982 1.868,1.054 2.211,1.107 0.142,0.006 0.288,0.004 0.437,-0.005 1.218,-0.064 2.054,-0.521 2.357,-1.277 0.25,-0.628 0.11,-1.426 -0.333,-1.896 -0.302,-0.32 -0.67,-0.409 -1.099,-0.267 -0.462,0.154 -0.966,-0.097 -1.12,-0.561 -0.156,-0.465 0.095,-0.967 0.56,-1.122 1.076,-0.357 2.178,-0.082 2.948,0.731 0.923,0.979 1.2,2.494 0.69,3.771 -0.566,1.415 -1.989,2.288 -3.906,2.393 -1.914,0.104 -3.472,-0.644 -4.388,-2.104 -0.039,-0.061 -0.072,-0.126 -0.108,-0.188 -0.021,-0.035 -0.041,-0.072 -0.061,-0.106 -0.021,-0.039 -0.042,-0.08 -0.062,-0.118 -0.849,-1.62 -0.917,-3.961 -0.504,-6.647 0.441,-2.866 2.044,-5.073 3.651,-7.199 1.711,-2.264 3.329,-4.403 3.506,-7.31 0.146,-2.365 -0.252,-3.655 -1.457,-4.302 -0.354,-0.14 -1.026,-0.379 -1.493,-0.449 -0.932,-0.138 -1.595,-0.135 -2.053,-0.076 0.013,0.016 0.028,0.029 0.039,0.045 0.979,1.253 1.288,3.013 0.918,5.229 -0.311,1.866 -2.019,4.234 -3.995,6.975 -2.146,2.976 -4.523,5.234 -4.649,10.088 -0.086,3.312 1.349,6.44 3.397,8.651 1.607,1.736 3.478,2.51 5.696,2.51 6.952,-0.002 9.427,-4.613 9.427,-8.927 z"
   id="path139"
   inkscape:connector-curvature="0"
   style="fill:#5e4e3b" />
		<g
   id="g141">
			<path
   d="m 60.889,101.306 c -0.135,0.29 -0.319,0.604 -0.531,0.929 -0.676,1.121 -1.445,2.094 -2.198,3.042 -1.148,1.447 -2.391,3.281 -2.906,4.946 0.583,-1.03 1.699,-1.976 2.65,-2.443 1.406,-0.692 2.81,-0.947 4.037,-0.991 0.199,-0.437 0.467,-1.637 0.281,-3.08 -0.153,-1.2 -0.836,-1.982 -1.333,-2.403 z"
   id="path143"
   inkscape:connector-curvature="0"
   style="fill:#5e4e3b" />
			<path
   d="m 68.039,114.208 c -0.156,-1.976 -1.255,-3.903 -2.453,-4.775 -0.625,-0.455 -1.315,-0.812 -2.088,-0.93 -1.278,-0.151 -3.089,-0.12 -4.869,0.754 -1.341,0.658 -2.439,1.88 -2.866,3.191 -0.373,1.147 -0.254,2.312 0.351,3.46 l -0.01,0.005 c 0.518,0.812 1.22,1.345 2.062,1.536 1.099,0.249 2.079,-0.179 2.441,-0.708 0.841,-1.223 0.502,-2.395 0.487,-2.444 -0.13,-0.432 0.112,-0.893 0.542,-1.026 0.431,-0.135 0.889,0.099 1.028,0.528 0.024,0.079 0.612,1.964 -0.7,3.875 -0.646,0.942 -1.861,1.494 -3.155,1.494 -0.333,0 -0.671,-0.036 -1.005,-0.112 -1.044,-0.236 -3.462,-1.215 -4.11,-5.319 -0.272,-1.718 -0.133,-3.122 0.24,-4.374 0.398,-1.381 1.284,-2.956 1.696,-3.494 0.398,-0.555 0.821,-1.087 1.241,-1.617 0.562,-0.708 1.133,-1.431 1.659,-2.212 1.029,-1.942 1.049,-3.754 -0.089,-6.074 -0.654,-1.336 -1.117,-1.872 -1.348,-2.079 -0.792,1.939 -2.058,4.215 -3.788,6.811 -1.593,2.392 -5.592,7.902 -4.23,13.879 1.147,5.032 4.625,9.883 10.688,9.691 1.568,-0.052 2.94,-0.442 4.107,-1.161 0.049,-0.04 0.103,-0.073 0.159,-0.102 0.595,-0.39 1.131,-0.788 1.613,-1.356 1.971,-2.319 2.624,-4.59 2.397,-7.441 z"
   id="path145"
   inkscape:connector-curvature="0"
   style="fill:#6e604f" />
		</g>
	</g>
</g>
</svg>