<?xml version="1.0" encoding="UTF-8" standalone="no"?>
<!-- Generator: Adobe Illustrator 16.0.4, SVG Export Plug-In . SVG Version: 6.00 Build 0)  -->

<svg
   xmlns:dc="http://purl.org/dc/elements/1.1/"
   xmlns:cc="http://creativecommons.org/ns#"
   xmlns:rdf="http://www.w3.org/1999/02/22-rdf-syntax-ns#"
   xmlns:svg="http://www.w3.org/2000/svg"
   xmlns="http://www.w3.org/2000/svg"
   xmlns:sodipodi="http://sodipodi.sourceforge.net/DTD/sodipodi-0.dtd"
   xmlns:inkscape="http://www.inkscape.org/namespaces/inkscape"
   version="1.1"
   id="Layer_1"
   x="0px"
   y="0px"
   width="800px"
   height="450px"
   viewBox="0 0 800 450"
   enable-background="new 0 0 800 450"
   xml:space="preserve"
   inkscape:version="0.48.2 r9819"
   sodipodi:docname="GrantEndowment.svg"><metadata
   id="metadata114"><rdf:RDF><cc:Work
       rdf:about=""><dc:format>image/svg+xml</dc:format><dc:type
         rdf:resource="http://purl.org/dc/dcmitype/StillImage" /><dc:title></dc:title></cc:Work></rdf:RDF></metadata><defs
   id="defs112" /><sodipodi:namedview
   pagecolor="#ffffff"
   bordercolor="#666666"
   borderopacity="1"
   objecttolerance="10"
   gridtolerance="10"
   guidetolerance="10"
   inkscape:pageopacity="0"
   inkscape:pageshadow="2"
   inkscape:window-width="935"
   inkscape:window-height="669"
   id="namedview110"
   showgrid="false"
   inkscape:zoom="0.44"
   inkscape:cx="400"
   inkscape:cy="225"
   inkscape:window-x="0"
   inkscape:window-y="0"
   inkscape:window-maximized="0"
   inkscape:current-layer="Layer_1" />
<radialGradient
   id="SVGID_1_"
   cx="394.9868"
   cy="145"
   r="778.0853"
   gradientTransform="matrix(1.0013 0 0 -1 3.9998 370)"
   gradientUnits="userSpaceOnUse">
	<stop
   offset="0"
   style="stop-color:#4D4D4D"
   id="stop4" />
	<stop
   offset="0.2325"
   style="stop-color:#494949"
   id="stop6" />
	<stop
   offset="0.4584"
   style="stop-color:#3D3D3D"
   id="stop8" />
	<stop
   offset="0.6817"
   style="stop-color:#2A2A2A"
   id="stop10" />
	<stop
   offset="0.902"
   style="stop-color:#0F0F0F"
   id="stop12" />
	<stop
   offset="1"
   style="stop-color:#000000"
   id="stop14" />
</radialGradient>
<rect
   x="-1"
   fill="url(#SVGID_1_)"
   width="801"
   height="450"
   id="rect16" />
<g
   id="g18">
	<g
   id="g20">
		<path
   fill="#FBB03B"
   d="M353.873,237.602l15.183,32.981h-5.508l-4.93-10.763H344.8l-5.091,10.763H337l15.53-32.981H353.873z     M345.749,257.736h11.873l-5.855-12.752L345.749,257.736z"
   id="path22" />
		<path
   fill="#FBB03B"
   d="M373.222,238.342h11.156c1.944,0,3.645,0.208,5.103,0.625s2.673,0.999,3.646,1.748    c0.972,0.748,1.705,1.635,2.199,2.661c0.494,1.026,0.74,2.147,0.74,3.368c0,1.002-0.189,1.939-0.566,2.812    c-0.378,0.871-0.914,1.658-1.609,2.359c-0.695,0.702-1.528,1.312-2.5,1.829c-0.972,0.517-2.045,0.914-3.217,1.192l11.734,15.646    h-6.272l-11.202-15.16h-3.796v15.16h-5.416V238.342z M378.637,253.803h3.125c1.219,0,2.342-0.162,3.368-0.484    c1.026-0.324,1.917-0.783,2.673-1.379c0.755-0.594,1.346-1.313,1.77-2.164c0.425-0.848,0.637-1.797,0.637-2.846    c0-0.957-0.17-1.841-0.509-2.65c-0.34-0.811-0.81-1.504-1.413-2.084c-0.601-0.577-1.318-1.028-2.152-1.354    c-0.833-0.324-1.743-0.484-2.73-0.484h-4.768L378.637,253.803L378.637,253.803z"
   id="path24" />
		<path
   fill="#FBB03B"
   d="M429.602,238.342v2.083h-11.665v30.158h-5.415v-30.158h-11.688v-2.083H429.602z"
   id="path26" />
		<path
   fill="#FBB03B"
   d="M443.396,269.286c0.803,0,1.594-0.106,2.372-0.323s1.475-0.541,2.083-0.973    c0.609-0.434,1.1-0.961,1.471-1.585c0.369-0.625,0.556-1.347,0.556-2.165c0-0.986-0.255-1.862-0.764-2.626    c-0.512-0.765-1.179-1.47-2.002-2.118c-0.826-0.646-1.771-1.253-2.836-1.816c-1.064-0.562-2.148-1.131-3.251-1.701    c-1.104-0.57-2.188-1.168-3.254-1.793c-1.064-0.625-2.01-1.319-2.835-2.084c-0.824-0.764-1.491-1.619-2.002-2.568    c-0.509-0.948-0.765-2.04-0.765-3.275c0-1.232,0.232-2.38,0.695-3.436c0.463-1.059,1.142-1.973,2.036-2.743    c0.894-0.771,1.994-1.378,3.298-1.817c1.305-0.438,2.806-0.658,4.503-0.658c3.055,0,5.465,0.64,7.231,1.92    c1.768,1.281,3.043,3.133,3.83,5.556l-2.777,1.272c-0.323-0.988-0.736-1.891-1.237-2.707c-0.501-0.818-1.104-1.521-1.806-2.106    c-0.701-0.586-1.509-1.038-2.418-1.354c-0.911-0.316-1.938-0.475-3.078-0.475c-1.02,0-1.91,0.143-2.675,0.428    c-0.764,0.285-1.396,0.656-1.897,1.111c-0.5,0.455-0.878,0.972-1.133,1.551c-0.255,0.578-0.382,1.169-0.382,1.771    c0,0.849,0.262,1.623,0.786,2.324c0.523,0.703,1.21,1.369,2.061,2.002c0.848,0.633,1.82,1.238,2.916,1.817s2.21,1.169,3.345,1.771    c1.134,0.604,2.249,1.228,3.344,1.875c1.097,0.647,2.067,1.357,2.917,2.129c0.849,0.771,1.534,1.617,2.061,2.535    c0.523,0.918,0.787,1.939,0.787,3.066c0,1.28-0.244,2.479-0.729,3.6c-0.485,1.119-1.216,2.099-2.188,2.938    c-0.973,0.842-2.18,1.506-3.622,1.991s-3.12,0.729-5.033,0.729c-1.543,0-2.925-0.171-4.145-0.51    c-1.219-0.341-2.295-0.834-3.229-1.482c-0.934-0.646-1.731-1.441-2.396-2.383c-0.664-0.943-1.211-2.007-1.643-3.193l2.916-1.203    c0.339,1.049,0.794,1.988,1.364,2.822c0.571,0.834,1.237,1.539,2.002,2.119c0.765,0.576,1.613,1.018,2.547,1.318    C441.355,269.137,442.347,269.286,443.396,269.286z"
   id="path28" />
		<path
   fill="#FBB03B"
   d="M500.494,253.201c-0.201,1.142-0.444,2.168-0.729,3.078c-0.284,0.91-0.629,1.771-1.029,2.58    c-0.4,0.811-0.864,1.594-1.389,2.35c-0.524,0.757-1.12,1.559-1.782,2.407c1.251,1.25,2.431,2.241,3.541,2.974    c1.11,0.733,2.13,1.1,3.055,1.1c1.204,0,2.242-0.234,3.113-0.705c0.872-0.471,1.569-1.309,2.096-2.512l0.9,0.323    c-0.215,1.05-0.562,1.983-1.041,2.802c-0.479,0.817-1.063,1.504-1.759,2.06c-0.693,0.556-1.484,0.977-2.373,1.262    c-0.887,0.286-1.847,0.429-2.881,0.429c-1.342,0-2.712-0.382-4.107-1.146c-1.396-0.765-2.773-1.771-4.132-3.021    c-0.786,0.617-1.612,1.18-2.477,1.689c-0.864,0.509-1.768,0.947-2.708,1.318c-0.941,0.371-1.917,0.656-2.928,0.856    c-1.012,0.2-2.057,0.302-3.138,0.302c-1.511,0-2.804-0.175-3.877-0.521c-1.07-0.348-1.946-0.829-2.626-1.446    c-0.679-0.616-1.177-1.354-1.493-2.21c-0.315-0.855-0.475-1.802-0.475-2.836c0-1.48,0.278-2.792,0.833-3.934    c0.556-1.144,1.289-2.164,2.199-3.067c0.911-0.901,1.952-1.708,3.125-2.418c1.172-0.71,2.376-1.366,3.608-1.968    c-0.678-1.436-1.215-2.75-1.606-3.945c-0.396-1.197-0.59-2.203-0.59-3.021c0-1.063,0.172-2.098,0.52-3.101    c0.349-1.003,0.873-1.897,1.574-2.687c0.702-0.786,1.578-1.416,2.627-1.885c1.049-0.472,2.276-0.707,3.68-0.707    c1.034,0,2.011,0.15,2.929,0.451c0.919,0.303,1.717,0.741,2.396,1.319c0.681,0.579,1.216,1.284,1.608,2.117    c0.395,0.834,0.591,1.774,0.591,2.823c0,1.065-0.251,1.994-0.752,2.789c-0.502,0.795-1.158,1.508-1.968,2.142    c-0.812,0.633-1.732,1.208-2.767,1.725s-2.075,1.021-3.125,1.517c0.851,1.59,1.868,3.183,3.057,4.779    c1.188,1.596,2.477,3.144,3.864,4.641c0.804-0.896,1.5-1.764,2.096-2.604c0.594-0.842,1.099-1.644,1.516-2.407    c0.417-0.763,0.752-1.484,1.007-2.164c0.255-0.679,0.444-1.304,0.566-1.875L500.494,253.201z M482.857,254.566    c-0.817,0.479-1.574,0.998-2.269,1.562c-0.695,0.563-1.293,1.169-1.794,1.815c-0.502,0.648-0.896,1.332-1.181,2.05    c-0.286,0.717-0.429,1.454-0.429,2.21c0,0.88,0.14,1.701,0.416,2.465c0.277,0.766,0.684,1.428,1.216,1.991    c0.531,0.562,1.173,1.002,1.922,1.317c0.747,0.316,1.601,0.477,2.558,0.477c1.28,0,2.499-0.282,3.656-0.846    c1.156-0.563,2.261-1.262,3.31-2.094c-0.741-0.787-1.446-1.625-2.117-2.513c-0.672-0.887-1.312-1.801-1.922-2.743    c-0.608-0.941-1.194-1.89-1.759-2.847C483.902,256.457,483.366,255.508,482.857,254.566z M486.375,251.002    c0.834-0.432,1.617-0.879,2.35-1.343s1.365-0.968,1.897-1.515c0.532-0.549,0.953-1.15,1.262-1.807    c0.31-0.656,0.463-1.378,0.463-2.164c0-0.787-0.101-1.484-0.301-2.095s-0.475-1.13-0.822-1.562    c-0.347-0.433-0.756-0.761-1.226-0.983c-0.472-0.226-0.969-0.336-1.493-0.336c-0.586,0-1.131,0.153-1.632,0.463    c-0.501,0.309-0.938,0.71-1.308,1.204c-0.371,0.492-0.66,1.045-0.868,1.654c-0.208,0.608-0.312,1.207-0.312,1.793    c0,0.973,0.177,2.045,0.533,3.219C485.271,248.703,485.759,249.859,486.375,251.002z"
   id="path30" />
		<path
   fill="#FBB03B"
   d="M535.234,269.286c0.801,0,1.592-0.106,2.371-0.323c0.778-0.217,1.474-0.541,2.082-0.973    c0.609-0.434,1.102-0.961,1.471-1.585c0.371-0.625,0.556-1.347,0.556-2.165c0-0.986-0.255-1.862-0.764-2.626    c-0.509-0.765-1.176-1.47-2.002-2.118c-0.825-0.646-1.771-1.253-2.836-1.816c-1.064-0.562-2.147-1.131-3.251-1.701    s-2.188-1.168-3.252-1.793c-1.064-0.625-2.011-1.319-2.835-2.084c-0.825-0.764-1.493-1.619-2.003-2.568    c-0.51-0.948-0.764-2.04-0.764-3.275c0-1.232,0.231-2.38,0.693-3.436c0.464-1.059,1.142-1.973,2.038-2.743    c0.895-0.771,1.993-1.378,3.298-1.817c1.303-0.438,2.804-0.658,4.501-0.658c3.056,0,5.467,0.64,7.231,1.92    c1.768,1.281,3.043,3.133,3.83,5.556l-2.775,1.272c-0.324-0.988-0.737-1.891-1.238-2.707c-0.502-0.818-1.103-1.521-1.806-2.106    c-0.702-0.586-1.509-1.038-2.418-1.354c-0.91-0.316-1.938-0.475-3.079-0.475c-1.019,0-1.909,0.143-2.673,0.428    c-0.765,0.285-1.396,0.656-1.897,1.111s-0.88,0.972-1.135,1.551c-0.255,0.578-0.382,1.169-0.382,1.771    c0,0.849,0.262,1.623,0.787,2.324c0.523,0.703,1.211,1.369,2.06,2.002c0.85,0.633,1.821,1.238,2.916,1.817    c1.097,0.579,2.211,1.169,3.345,1.771c1.136,0.604,2.249,1.228,3.345,1.875s2.067,1.357,2.916,2.129    c0.851,0.771,1.536,1.617,2.061,2.535c0.525,0.918,0.787,1.939,0.787,3.066c0,1.28-0.242,2.479-0.729,3.6    c-0.486,1.119-1.215,2.099-2.188,2.938c-0.972,0.842-2.181,1.506-3.622,1.991c-1.442,0.485-3.12,0.729-5.034,0.729    c-1.543,0-2.924-0.171-4.143-0.51c-1.22-0.341-2.296-0.834-3.229-1.482c-0.933-0.646-1.73-1.441-2.395-2.383    c-0.664-0.943-1.212-2.007-1.645-3.193l2.916-1.203c0.34,1.049,0.795,1.988,1.366,2.822s1.238,1.539,2.002,2.119    c0.764,0.576,1.612,1.018,2.545,1.318C533.193,269.137,534.185,269.286,535.234,269.286z"
   id="path32" />
		<path
   fill="#FBB03B"
   d="M557.476,254.566c0,2.268,0.34,4.297,1.02,6.086c0.679,1.791,1.611,3.307,2.8,4.549    c1.189,1.242,2.597,2.191,4.225,2.848c1.629,0.654,3.392,0.982,5.288,0.982c1.127,0,2.216-0.219,3.265-0.659    c1.049-0.438,2.024-1.011,2.928-1.712c0.902-0.703,1.709-1.497,2.419-2.385c0.709-0.887,1.296-1.787,1.759-2.695l2.27,1.457    c-0.664,1.081-1.447,2.122-2.351,3.125c-0.902,1.003-1.948,1.887-3.137,2.65s-2.529,1.377-4.026,1.838    c-1.496,0.465-3.171,0.695-5.021,0.695c-1.774,0-3.448-0.203-5.022-0.613c-1.573-0.408-3.021-0.979-4.34-1.713    c-1.319-0.732-2.499-1.615-3.541-2.648c-1.041-1.034-1.921-2.174-2.639-3.414c-0.718-1.242-1.27-2.574-1.655-3.993    c-0.386-1.42-0.577-2.885-0.577-4.397c0-1.512,0.195-2.981,0.59-4.408c0.394-1.428,0.956-2.771,1.689-4.027    c0.731-1.257,1.632-2.411,2.696-3.46c1.063-1.05,2.264-1.948,3.599-2.694c1.334-0.75,2.797-1.332,4.386-1.748    c1.589-0.418,3.286-0.625,5.094-0.625c1.712,0,3.288,0.23,4.731,0.693c1.442,0.463,2.762,1.076,3.957,1.84    c1.196,0.764,2.257,1.647,3.184,2.649c0.926,1.004,1.721,2.045,2.385,3.126l-2.339,1.572c-1.357-2.606-2.869-4.521-4.535-5.739    c-1.667-1.22-3.58-1.828-5.74-1.828c-1.867,0-3.61,0.34-5.23,1.019c-1.621,0.68-3.032,1.651-4.234,2.916    c-1.203,1.266-2.153,2.801-2.848,4.605C557.822,250.262,557.476,252.299,557.476,254.566z"
   id="path34" />
		<path
   fill="#FBB03B"
   d="M590.155,238.342h5.416v32.241h-5.416V238.342z"
   id="path36" />
		<path
   fill="#FBB03B"
   d="M626.076,238.342v2.083h-16.988v11.526h11.364v2.083h-11.364v14.465h16.988v2.084h-22.404v-32.241H626.076    L626.076,238.342z"
   id="path38" />
		<path
   fill="#FBB03B"
   d="M632.094,238.342h3.032l21.131,23.562h0.208v-23.562h2.384v33.006h-1.25l-22.89-26.224h-0.186v25.459    h-2.431L632.094,238.342L632.094,238.342z"
   id="path40" />
		<path
   fill="#FBB03B"
   d="M671.902,254.566c0,2.268,0.339,4.297,1.019,6.086c0.679,1.791,1.612,3.307,2.801,4.549    s2.597,2.191,4.225,2.848c1.627,0.654,3.391,0.982,5.289,0.982c1.126,0,2.214-0.219,3.263-0.659    c1.05-0.438,2.023-1.011,2.928-1.712c0.902-0.703,1.709-1.497,2.418-2.385c0.71-0.887,1.297-1.787,1.76-2.695l2.27,1.457    c-0.664,1.081-1.447,2.122-2.35,3.125c-0.903,1.003-1.947,1.887-3.137,2.65c-1.188,0.763-2.53,1.377-4.026,1.838    c-1.497,0.465-3.171,0.695-5.022,0.695c-1.773,0-3.448-0.203-5.021-0.613c-1.573-0.408-3.021-0.979-4.339-1.713    c-1.319-0.732-2.501-1.615-3.542-2.648c-1.041-1.034-1.922-2.174-2.64-3.414c-0.717-1.242-1.269-2.574-1.653-3.993    c-0.387-1.42-0.579-2.885-0.579-4.397c0-1.512,0.196-2.981,0.59-4.408c0.395-1.428,0.957-2.771,1.689-4.027    s1.632-2.411,2.696-3.46c1.064-1.05,2.264-1.948,3.6-2.694c1.335-0.75,2.796-1.332,4.386-1.748    c1.59-0.418,3.287-0.625,5.092-0.625c1.713,0,3.291,0.23,4.731,0.693c1.443,0.463,2.764,1.076,3.959,1.84s2.257,1.647,3.183,2.649    c0.927,1.004,1.721,2.045,2.385,3.126l-2.338,1.572c-1.358-2.606-2.87-4.521-4.536-5.739c-1.667-1.22-3.58-1.828-5.74-1.828    c-1.866,0-3.609,0.34-5.23,1.019c-1.62,0.68-3.031,1.651-4.235,2.916c-1.203,1.266-2.151,2.801-2.847,4.605    C672.25,250.262,671.902,252.299,671.902,254.566z"
   id="path42" />
		<path
   fill="#FBB03B"
   d="M726.986,238.342v2.083h-16.988v11.526h11.364v2.083h-11.364v14.465h16.988v2.084h-22.403v-32.241H726.986    L726.986,238.342z"
   id="path44" />
		<path
   fill="#FBB03B"
   d="M741.822,269.286c0.803,0,1.593-0.106,2.372-0.323s1.474-0.541,2.083-0.973    c0.608-0.434,1.1-0.961,1.47-1.585c0.37-0.625,0.556-1.347,0.556-2.165c0-0.986-0.255-1.862-0.764-2.626    c-0.509-0.765-1.177-1.47-2.002-2.118c-0.826-0.646-1.771-1.253-2.835-1.816c-1.065-0.562-2.149-1.131-3.252-1.701    c-1.104-0.57-2.188-1.168-3.253-1.793s-2.009-1.319-2.834-2.084c-0.826-0.764-1.493-1.619-2.002-2.568    c-0.51-0.948-0.765-2.04-0.765-3.275c0-1.232,0.231-2.38,0.693-3.436c0.463-1.059,1.143-1.973,2.037-2.743    c0.896-0.771,1.994-1.378,3.298-1.817c1.305-0.438,2.805-0.658,4.502-0.658c3.055,0,5.466,0.64,7.232,1.92    c1.768,1.281,3.044,3.133,3.83,5.556l-2.776,1.272c-0.324-0.988-0.736-1.891-1.238-2.707c-0.502-0.818-1.104-1.521-1.807-2.106    c-0.701-0.586-1.508-1.038-2.418-1.354s-1.937-0.475-3.078-0.475c-1.019,0-1.91,0.143-2.674,0.428    c-0.765,0.285-1.396,0.656-1.896,1.111c-0.502,0.455-0.88,0.972-1.135,1.551c-0.254,0.578-0.382,1.169-0.382,1.771    c0,0.849,0.263,1.623,0.787,2.324c0.523,0.703,1.212,1.369,2.06,2.002c0.851,0.633,1.821,1.238,2.916,1.817    c1.096,0.579,2.211,1.169,3.345,1.771c1.136,0.604,2.249,1.228,3.346,1.875c1.096,0.647,2.066,1.357,2.916,2.129    c0.849,0.772,1.534,1.617,2.06,2.535s0.787,1.939,0.787,3.066c0,1.28-0.243,2.479-0.729,3.6c-0.484,1.119-1.215,2.099-2.187,2.938    c-0.972,0.842-2.18,1.506-3.622,1.991c-1.443,0.485-3.121,0.729-5.034,0.729c-1.543,0-2.925-0.171-4.144-0.51    c-1.219-0.341-2.294-0.834-3.229-1.482c-0.935-0.646-1.731-1.441-2.396-2.383s-1.212-2.007-1.645-3.193l2.916-1.203    c0.341,1.049,0.795,1.988,1.366,2.822c0.57,0.834,1.237,1.539,2.002,2.119c0.764,0.576,1.611,1.018,2.545,1.318    C739.782,269.137,740.773,269.286,741.822,269.286z"
   id="path46" />
	</g>
	<g
   id="g48">
		<g
   id="g50">
			<path
   fill="#F2F2F2"
   d="M354.298,223.709v-1.128h6.511v1.128c-0.52,0.089-0.858,0.241-1.015,0.456     c-0.157,0.216-0.236,0.662-0.236,1.338v2.913c-0.219-0.014-0.396-0.021-0.533-0.021c-0.677,0-1.822,0.176-3.435,0.523     c-1.155,0.246-2.123,0.369-2.902,0.369c-2.112,0-3.821-0.705-5.127-2.117s-1.958-3.058-1.958-4.938     c0-2.017,0.688-3.751,2.066-5.204c1.377-1.452,3.084-2.179,5.122-2.179c1.661,0,3.121,0.53,4.378,1.589     c0.219-0.451,0.352-0.933,0.4-1.446h1.097l0.123,4.86h-1.118c-0.704-2.365-2.078-3.548-4.122-3.548     c-1.217,0-2.145,0.448-2.784,1.343c-0.64,0.896-0.959,2.399-0.959,4.512c0,1.483,0.094,2.611,0.282,3.384     c0.188,0.771,0.55,1.371,1.087,1.794c0.536,0.424,1.232,0.636,2.086,0.636c0.759,0,1.388-0.164,1.887-0.492     s0.749-0.975,0.749-1.938v-0.513C355.897,224.218,355.364,223.777,354.298,223.709z"
   id="path52" />
			<path
   fill="#F2F2F2"
   d="M367.228,222.868v3.292c0,0.635,0.109,1.078,0.328,1.326c0.219,0.25,0.667,0.375,1.343,0.375h0.246V229     h-7.496v-1.139h0.277c0.697,0,1.15-0.129,1.359-0.385c0.208-0.257,0.312-0.695,0.312-1.316v-8.224     c0-0.636-0.109-1.078-0.328-1.328c-0.219-0.25-0.667-0.375-1.343-0.375h-0.277v-1.138l5.578-0.01l1.251-0.01     c1.237,0,2.141,0.041,2.712,0.123c0.571,0.082,1.133,0.279,1.687,0.59c0.554,0.311,0.99,0.736,1.307,1.276     c0.318,0.54,0.477,1.121,0.477,1.743c0,1.654-0.937,2.786-2.81,3.394c0.499,0.314,1.275,1.299,2.328,2.953     c0.82,1.28,1.405,2.049,1.753,2.312c0.349,0.265,0.731,0.396,1.148,0.396V229h-4.348c-0.396-0.473-1.131-1.668-2.205-3.589     c-0.54-0.971-0.919-1.596-1.138-1.876c-0.219-0.28-0.443-0.459-0.671-0.539C368.491,222.918,367.994,222.875,367.228,222.868z      M367.228,221.617c1.155,0.014,1.935-0.057,2.338-0.21c0.403-0.154,0.721-0.431,0.954-0.831c0.232-0.399,0.349-0.941,0.349-1.625     c0-0.978-0.231-1.654-0.692-2.03c-0.462-0.376-1.256-0.564-2.384-0.564c-0.144,0-0.332,0.003-0.564,0.01L367.228,221.617     L367.228,221.617z"
   id="path54" />
			<path
   fill="#F2F2F2"
   d="M380.261,225.247l-0.267,0.687c-0.191,0.486-0.287,0.828-0.287,1.025c0,0.336,0.113,0.568,0.338,0.703     c0.226,0.133,0.595,0.199,1.107,0.199V229h-4.594v-1.139c0.875,0,1.61-0.744,2.205-2.235l4.276-10.777h1.2l4.358,10.767     c0.431,1.065,0.82,1.707,1.169,1.923c0.349,0.215,0.684,0.322,1.005,0.322V229h-6.901v-1.139c0.622,0,1.008-0.06,1.159-0.18     c0.151-0.119,0.226-0.271,0.226-0.455c0-0.164-0.062-0.381-0.185-0.646l-0.133-0.318l-0.4-1.015H380.261z M380.702,224.068h3.374     l-1.733-4.153L380.702,224.068z"
   id="path56" />
			<path
   fill="#F2F2F2"
   d="M394.114,219.054v6.388c0,1.025,0.186,1.685,0.559,1.979c0.372,0.294,0.849,0.44,1.43,0.44V229h-5.219     v-1.139c0.444,0,0.831-0.107,1.159-0.322c0.328-0.216,0.537-0.465,0.625-0.749c0.089-0.283,0.133-0.729,0.133-1.338v-7.096     c0-1.415-0.663-2.123-1.989-2.123v-1.138h4.696l7.619,8.511v-5.096c0-1.518-0.639-2.276-1.918-2.276v-1.138h4.994v1.138     c-0.35,0-0.676,0.096-0.979,0.287c-0.303,0.191-0.511,0.436-0.62,0.733c-0.108,0.298-0.163,0.73-0.163,1.297v10.674h-1.312     L394.114,219.054z"
   id="path58" />
			<path
   fill="#F2F2F2"
   d="M412.396,216.336h-1.17c-0.696,0-1.21,0.075-1.537,0.226c-0.328,0.151-0.604,0.45-0.825,0.897     c-0.224,0.448-0.357,0.979-0.405,1.595h-1.158v-3.958h13.914v3.958h-1.158c-0.219-1.066-0.526-1.786-0.924-2.158     c-0.396-0.372-1.027-0.559-1.896-0.559h-1.199v9.824c0,0.635,0.106,1.078,0.322,1.327c0.216,0.25,0.668,0.373,1.358,0.373h0.358     V229h-7.681v-1.139h0.327c0.697,0,1.15-0.129,1.359-0.385c0.208-0.257,0.312-0.695,0.312-1.316v-9.824H412.396z"
   id="path60" />
			<path
   fill="#F2F2F2"
   d="M432.74,216.336h-1.169c-0.697,0-1.21,0.075-1.538,0.226s-0.604,0.45-0.825,0.897     c-0.223,0.448-0.357,0.979-0.405,1.595h-1.158v-3.958h13.914v3.958H440.4c-0.22-1.066-0.527-1.786-0.925-2.158     c-0.396-0.372-1.027-0.559-1.896-0.559h-1.199v9.824c0,0.635,0.107,1.078,0.322,1.327c0.216,0.25,0.668,0.373,1.358,0.373h0.358     V229h-7.681v-1.139h0.328c0.696,0,1.149-0.129,1.358-0.385c0.208-0.257,0.312-0.695,0.312-1.316v-9.824H432.74z"
   id="path62" />
			<path
   fill="#F2F2F2"
   d="M440.902,227.514c0-0.506,0.182-0.94,0.543-1.308c0.362-0.366,0.801-0.549,1.312-0.549     c0.515,0,0.951,0.183,1.312,0.549c0.362,0.366,0.544,0.802,0.544,1.308c0,0.512-0.184,0.949-0.548,1.312     c-0.367,0.361-0.804,0.543-1.31,0.543s-0.94-0.182-1.307-0.543C441.085,228.463,440.902,228.025,440.902,227.514z"
   id="path64" />
			<path
   fill="#F2F2F2"
   d="M452.5,222.007c0-1.251,0.348-2.471,1.045-3.661s1.644-2.069,2.836-2.64     c1.192-0.571,2.469-0.856,3.83-0.856c2.447,0,4.365,0.706,5.757,2.117c1.393,1.412,2.087,3.143,2.087,5.194     c0,1.948-0.692,3.623-2.082,5.024c-1.387,1.4-3.272,2.103-5.66,2.103c-1.633,0-3.077-0.347-4.331-1.035     c-1.255-0.69-2.148-1.619-2.683-2.784C452.766,224.302,452.5,223.148,452.5,222.007z M456.785,221.894     c0,2.14,0.287,3.683,0.861,4.629c0.573,0.947,1.43,1.42,2.563,1.42c1.182,0,2.074-0.433,2.676-1.297     c0.603-0.864,0.902-2.38,0.902-4.547c0-1.982-0.282-3.462-0.846-4.44c-0.564-0.978-1.461-1.466-2.691-1.466     c-1.162,0-2.031,0.455-2.605,1.364C457.072,218.466,456.785,219.912,456.785,221.894z"
   id="path66" />
			<path
   fill="#F2F2F2"
   d="M482.226,224.375L482.164,229H469.49v-1.139h0.205c0.696,0,1.149-0.129,1.358-0.385     c0.207-0.257,0.312-0.695,0.312-1.316v-8.224c0-0.636-0.109-1.078-0.328-1.328s-0.667-0.375-1.344-0.375h-0.205v-1.138h7.455     v1.138h-0.277c-0.697,0-1.15,0.128-1.359,0.384c-0.208,0.257-0.312,0.696-0.312,1.318v7.937c0,0.594,0.035,0.987,0.104,1.179     c0.069,0.191,0.247,0.357,0.537,0.497c0.291,0.142,0.799,0.211,1.523,0.211c1.217,0,2.126-0.307,2.728-0.918     c0.603-0.61,1.013-1.434,1.23-2.466H482.226L482.226,224.375z"
   id="path68" />
			<path
   fill="#F2F2F2"
   d="M483.527,228.764v-4.757h1.229c0.342,1.422,0.855,2.437,1.539,3.045c0.685,0.608,1.422,0.913,2.215,0.913     c0.588,0,1.057-0.175,1.404-0.523c0.348-0.348,0.523-0.758,0.523-1.229c0-0.335-0.109-0.67-0.328-1.005     c-0.22-0.335-0.738-0.708-1.56-1.118c-1.58-0.786-2.646-1.362-3.199-1.728c-0.555-0.365-0.997-0.835-1.334-1.41     c-0.334-0.574-0.502-1.234-0.502-1.979c0-1.196,0.43-2.182,1.287-2.958c0.857-0.776,1.852-1.164,2.979-1.164     c1.183,0,2.188,0.396,3.015,1.189c0.137-0.205,0.249-0.52,0.339-0.943h1.18v4.102h-1.148c-0.205-0.909-0.595-1.658-1.169-2.246     s-1.221-0.882-1.938-0.882c-0.541,0-0.97,0.15-1.286,0.451c-0.318,0.301-0.478,0.677-0.478,1.128     c0,0.349,0.103,0.671,0.307,0.969c0.205,0.297,0.482,0.543,0.831,0.738c0.35,0.194,1.088,0.555,2.216,1.082     c1.012,0.479,1.761,0.906,2.244,1.282c0.486,0.376,0.87,0.85,1.154,1.42c0.283,0.571,0.426,1.188,0.426,1.851     c0,1.229-0.455,2.254-1.363,3.071c-0.909,0.816-1.993,1.226-3.251,1.226c-0.718,0-1.421-0.149-2.106-0.451     c-0.688-0.301-1.235-0.701-1.646-1.198c-0.158,0.307-0.273,0.684-0.351,1.127h-1.229V228.764z"
   id="path70" />
			<path
   fill="#F2F2F2"
   d="M495.156,222.007c0-1.251,0.348-2.471,1.045-3.661s1.643-2.069,2.836-2.64     c1.191-0.571,2.469-0.856,3.83-0.856c2.447,0,4.365,0.706,5.757,2.117c1.392,1.412,2.087,3.143,2.087,5.194     c0,1.948-0.693,3.623-2.082,5.024c-1.387,1.4-3.272,2.103-5.66,2.103c-1.633,0-3.078-0.347-4.332-1.035     c-1.254-0.69-2.147-1.619-2.682-2.784C495.422,224.302,495.156,223.148,495.156,222.007z M499.441,221.894     c0,2.14,0.286,3.683,0.86,4.629c0.574,0.947,1.431,1.42,2.564,1.42c1.182,0,2.074-0.433,2.676-1.297s0.902-2.38,0.902-4.547     c0-1.982-0.282-3.462-0.847-4.44c-0.563-0.978-1.461-1.466-2.69-1.466c-1.162,0-2.031,0.455-2.605,1.364     C499.728,218.466,499.441,219.912,499.441,221.894z"
   id="path72" />
			<path
   fill="#F2F2F2"
   d="M515.469,219.054v6.388c0,1.025,0.187,1.685,0.56,1.979s0.85,0.44,1.431,0.44V229h-5.22v-1.139     c0.444,0,0.831-0.107,1.159-0.322c0.328-0.216,0.535-0.465,0.626-0.749c0.088-0.283,0.133-0.729,0.133-1.338v-7.096     c0-1.415-0.663-2.123-1.989-2.123v-1.138h4.696l7.619,8.511v-5.096c0-1.518-0.641-2.276-1.918-2.276v-1.138h4.993v1.138     c-0.35,0-0.676,0.096-0.979,0.287s-0.51,0.436-0.619,0.733c-0.109,0.298-0.164,0.73-0.164,1.297v10.674h-1.312L515.469,219.054z"
   id="path74" />
			<path
   fill="#F2F2F2"
   d="M539.371,222.355v3.435c0,0.657,0.037,1.085,0.112,1.287c0.074,0.202,0.275,0.368,0.604,0.503     c0.328,0.133,0.828,0.199,1.498,0.199c0.908,0,1.576-0.112,2.004-0.338c0.428-0.227,0.812-0.623,1.148-1.189     s0.583-1.172,0.732-1.815h1.148L546.527,229h-12.716v-1.139h0.258c0.689,0,1.14-0.129,1.349-0.385     c0.208-0.257,0.312-0.695,0.312-1.316v-8.245c0-0.636-0.107-1.078-0.322-1.328c-0.217-0.25-0.662-0.375-1.339-0.375h-0.258     v-1.118h11.845l0.205,3.599h-1.148c-0.205-0.629-0.434-1.129-0.688-1.502c-0.252-0.372-0.509-0.611-0.765-0.718     c-0.256-0.105-0.688-0.159-1.297-0.159h-2.594v4.799h1.291c0.615,0,1.022-0.116,1.227-0.349c0.201-0.232,0.315-0.69,0.344-1.374     h1.158v4.717h-1.158c0.007-0.089,0.011-0.154,0.011-0.195c0-0.396-0.084-0.755-0.252-1.077c-0.168-0.322-0.597-0.482-1.287-0.482     h-1.332V222.355z"
   id="path76" />
			<path
   fill="#F2F2F2"
   d="M551.121,219.054v6.388c0,1.025,0.187,1.685,0.56,1.979c0.372,0.294,0.85,0.44,1.432,0.44V229h-5.221     v-1.139c0.444,0,0.831-0.107,1.159-0.322c0.328-0.216,0.536-0.465,0.625-0.749c0.089-0.283,0.133-0.729,0.133-1.338v-7.096     c0-1.415-0.661-2.123-1.987-2.123v-1.138h4.694l7.619,8.511v-5.096c0-1.518-0.639-2.276-1.918-2.276v-1.138h4.994v1.138     c-0.349,0-0.676,0.096-0.979,0.287c-0.304,0.191-0.512,0.436-0.62,0.733c-0.109,0.298-0.164,0.73-0.164,1.297v10.674h-1.312     L551.121,219.054z"
   id="path78" />
			<path
   fill="#F2F2F2"
   d="M564.359,229v-1.139c0.73,0,1.217-0.113,1.456-0.344c0.238-0.229,0.357-0.683,0.357-1.357v-8.234     c0-0.656-0.112-1.104-0.338-1.343c-0.226-0.239-0.718-0.359-1.477-0.359v-1.128l1.672-0.062c1.682-0.068,3-0.103,3.957-0.103     c1.6,0,2.899,0.092,3.901,0.277c1.001,0.185,1.948,0.589,2.84,1.215c0.894,0.625,1.579,1.436,2.062,2.43     c0.48,0.995,0.723,2.09,0.723,3.287c0,1.224-0.255,2.317-0.764,3.281c-0.51,0.963-1.194,1.733-2.056,2.308     c-0.862,0.573-1.755,0.93-2.678,1.065S571.544,229,569.363,229H564.359z M569.814,216.183v9.577c0,0.615,0.028,1.029,0.087,1.24     c0.059,0.213,0.212,0.395,0.462,0.544c0.249,0.149,0.634,0.226,1.152,0.226c1.285,0,2.247-0.472,2.888-1.414     c0.639-0.943,0.958-2.355,0.958-4.235c0-1.518-0.235-2.726-0.707-3.625c-0.473-0.899-1.084-1.509-1.836-1.831     C572.066,216.342,571.065,216.183,569.814,216.183z"
   id="path80" />
			<path
   fill="#F2F2F2"
   d="M581.565,222.007c0-1.251,0.348-2.471,1.045-3.661c0.696-1.19,1.643-2.069,2.836-2.64     c1.191-0.571,2.469-0.856,3.83-0.856c2.445,0,4.365,0.706,5.757,2.117c1.392,1.412,2.087,3.143,2.087,5.194     c0,1.948-0.694,3.623-2.082,5.024c-1.388,1.4-3.274,2.103-5.66,2.103c-1.634,0-3.077-0.347-4.332-1.035     c-1.254-0.69-2.147-1.619-2.682-2.784C581.831,224.302,581.565,223.148,581.565,222.007z M585.851,221.894     c0,2.14,0.287,3.683,0.861,4.629c0.574,0.947,1.429,1.42,2.564,1.42c1.182,0,2.073-0.433,2.676-1.297     c0.602-0.864,0.902-2.38,0.902-4.547c0-1.982-0.282-3.462-0.847-4.44c-0.563-0.978-1.461-1.466-2.69-1.466     c-1.163,0-2.031,0.455-2.605,1.364C586.138,218.466,585.851,219.912,585.851,221.894z"
   id="path82" />
			<path
   fill="#F2F2F2"
   d="M602.698,229.287l-3.384-11.013c-0.302-0.984-0.562-1.57-0.784-1.759     c-0.224-0.188-0.573-0.282-1.052-0.282v-1.138h6.337v1.138c-0.759,0-1.139,0.232-1.139,0.697c0,0.267,0.056,0.581,0.164,0.943     l1.948,6.204l2.933-8.982h1.589l3.519,8.982l1.559-5.64c0.116-0.438,0.175-0.772,0.175-1.005c0-0.8-0.454-1.2-1.363-1.2v-1.138     h4.45v1.138c-0.417,0-0.779,0.146-1.087,0.436c-0.309,0.29-0.666,1.167-1.076,2.63l-2.789,9.987h-1.601l-3.631-9.331     l-3.116,9.331h-1.651V229.287z"
   id="path84" />
			<path
   fill="#F2F2F2"
   d="M626.077,229l-5.168-10.838v7.188c0,0.643,0.044,1.116,0.133,1.419c0.089,0.306,0.296,0.562,0.621,0.774     c0.324,0.212,0.719,0.317,1.184,0.317V229h-5.004v-1.139c0.438,0,0.817-0.113,1.14-0.344c0.321-0.229,0.518-0.492,0.59-0.789     c0.07-0.297,0.106-0.774,0.106-1.431v-7.311c0-0.697-0.121-1.164-0.364-1.399c-0.241-0.236-0.732-0.354-1.472-0.354v-1.138h5.568     l4.286,9.136l4.327-9.136h5.588v1.138h-0.276c-0.697,0-1.15,0.128-1.357,0.384c-0.209,0.257-0.312,0.696-0.312,1.318v8.224     c0,0.635,0.107,1.078,0.322,1.326c0.216,0.25,0.665,0.375,1.349,0.375h0.317V229h-7.566v-1.139h0.276     c0.689,0,1.14-0.129,1.349-0.385c0.208-0.257,0.312-0.695,0.312-1.316v-8.173L626.877,229H626.077z"
   id="path86" />
			<path
   fill="#F2F2F2"
   d="M644.196,222.355v3.435c0,0.657,0.037,1.085,0.112,1.287c0.074,0.202,0.276,0.368,0.604,0.503     c0.328,0.133,0.827,0.199,1.497,0.199c0.909,0,1.577-0.112,2.005-0.338c0.427-0.227,0.81-0.623,1.147-1.189     c0.339-0.566,0.582-1.172,0.733-1.815h1.148L651.354,229h-12.715v-1.139h0.258c0.688,0,1.14-0.129,1.348-0.385     c0.209-0.257,0.312-0.695,0.312-1.316v-8.245c0-0.636-0.106-1.078-0.321-1.328c-0.217-0.25-0.662-0.375-1.338-0.375h-0.258     v-1.118h11.844l0.205,3.599h-1.148c-0.205-0.629-0.434-1.129-0.688-1.502c-0.253-0.372-0.508-0.611-0.764-0.718     c-0.257-0.105-0.688-0.159-1.298-0.159h-2.594v4.799h1.292c0.615,0,1.022-0.116,1.226-0.349c0.201-0.232,0.315-0.69,0.344-1.374     h1.158v4.717h-1.158c0.007-0.089,0.011-0.154,0.011-0.195c0-0.396-0.084-0.755-0.251-1.077c-0.168-0.321-0.598-0.482-1.287-0.482     h-1.334V222.355z"
   id="path88" />
			<path
   fill="#F2F2F2"
   d="M655.946,219.054v6.388c0,1.025,0.187,1.685,0.56,1.979c0.372,0.294,0.85,0.44,1.432,0.44V229h-5.221     v-1.139c0.444,0,0.831-0.107,1.159-0.322c0.328-0.216,0.536-0.465,0.625-0.749c0.089-0.283,0.133-0.729,0.133-1.338v-7.096     c0-1.415-0.663-2.123-1.987-2.123v-1.138h4.694l7.619,8.511v-5.096c0-1.518-0.64-2.276-1.918-2.276v-1.138h4.994v1.138     c-0.349,0-0.675,0.096-0.979,0.287c-0.304,0.191-0.511,0.436-0.619,0.733c-0.109,0.298-0.164,0.73-0.164,1.297v10.674h-1.312     L655.946,219.054z"
   id="path90" />
			<path
   fill="#F2F2F2"
   d="M674.229,216.336h-1.169c-0.696,0-1.21,0.075-1.538,0.226c-0.327,0.151-0.604,0.45-0.824,0.897     c-0.224,0.448-0.357,0.979-0.405,1.595h-1.158v-3.958h13.914v3.958h-1.158c-0.22-1.066-0.526-1.786-0.924-2.158     s-1.028-0.559-1.896-0.559h-1.199v9.824c0,0.635,0.106,1.078,0.322,1.327c0.216,0.25,0.668,0.373,1.358,0.373h0.358V229h-7.682     v-1.139h0.328c0.697,0,1.15-0.129,1.359-0.385c0.208-0.257,0.312-0.695,0.312-1.316L674.229,216.336L674.229,216.336z"
   id="path92" />
			<path
   fill="#F2F2F2"
   d="M694.614,221.74l-1.025,4.594c-0.595,2.652-1.386,4.631-2.374,5.938     c-0.987,1.306-2.329,1.959-4.023,1.959c-0.808,0-1.396-0.153-1.77-0.463c-0.373-0.307-0.56-0.68-0.56-1.117     c0-0.396,0.146-0.729,0.437-1c0.29-0.27,0.627-0.403,1.01-0.403c0.793,0,1.251,0.424,1.374,1.271     c0.062,0.43,0.25,0.646,0.564,0.646c0.321,0,0.613-0.287,0.876-0.861c0.264-0.574,0.583-1.732,0.959-3.476l0.317-1.487     c0.096-0.355,0.164-0.636,0.205-0.841l1.035-4.758h-1.333l0.35-1.138h1.22c0.644-2.338,1.394-3.888,2.251-4.65     c0.858-0.762,1.882-1.144,3.071-1.144c0.793,0,1.439,0.154,1.942,0.461c0.502,0.308,0.754,0.718,0.754,1.23     c0,0.342-0.121,0.641-0.363,0.897c-0.243,0.257-0.553,0.385-0.93,0.385c-0.539,0-1.004-0.379-1.395-1.138     c-0.287-0.567-0.577-0.851-0.871-0.851c-0.342,0-0.604,0.455-0.789,1.364l-0.678,3.445h1.528l-0.35,1.138H694.614z"
   id="path94" />
			<path
   fill="#F2F2F2"
   d="M696.655,225.462c0-0.718,0.21-1.488,0.631-2.312c0.42-0.824,1.08-1.509,1.979-2.056     c0.899-0.547,1.968-0.82,3.205-0.82c1.537,0,2.667,0.366,3.39,1.097c0.721,0.731,1.082,1.617,1.082,2.656     c0,1.429-0.556,2.668-1.662,3.717c-1.107,1.049-2.521,1.574-4.244,1.574c-1.252,0-2.294-0.316-3.128-0.949     C697.072,227.736,696.655,226.768,696.655,225.462z M699.659,226.498c0,0.607,0.115,1.064,0.344,1.369     c0.229,0.305,0.572,0.456,1.031,0.456c0.847,0,1.539-0.64,2.076-1.917c0.536-1.279,0.805-2.359,0.805-3.241     c0-0.67-0.128-1.155-0.385-1.456c-0.256-0.301-0.553-0.451-0.888-0.451c-0.901,0-1.625,0.67-2.169,2.01     C699.932,224.608,699.659,225.686,699.659,226.498z"
   id="path96" />
			<path
   fill="#F2F2F2"
   d="M708.438,229l1.806-5.917c0.123-0.396,0.185-0.68,0.185-0.851c0-0.212-0.105-0.318-0.317-0.318     c-0.485,0-0.987,0.468-1.508,1.405h-0.953c0.561-1.019,1.221-1.781,1.979-2.287c0.758-0.506,1.497-0.759,2.215-0.759     c0.424,0,0.75,0.133,0.979,0.4c0.229,0.267,0.344,0.608,0.344,1.025c0,0.451-0.192,1.374-0.574,2.769     c1.537-2.796,2.884-4.194,4.039-4.194c0.342,0,0.629,0.111,0.861,0.333c0.231,0.222,0.35,0.531,0.35,0.928     c0,0.479-0.138,0.907-0.41,1.287c-0.273,0.379-0.611,0.569-1.016,0.569c-0.349,0-0.615-0.147-0.8-0.441     c-0.145-0.212-0.284-0.318-0.421-0.318c-0.472,0-1.114,0.745-1.928,2.235c-0.813,1.489-1.392,2.868-1.732,4.132h-3.098V229z"
   id="path98" />
			<path
   fill="#F2F2F2"
   d="M728.494,226.098h1.138c-0.294,0.801-0.788,1.537-1.48,2.211c-0.694,0.674-1.507,1.01-2.437,1.01     c-0.588,0-1.078-0.155-1.472-0.467c-0.394-0.311-0.589-0.817-0.589-1.522c0-0.451,0.146-1.127,0.439-2.03l1.087-3.558h-1.723     l0.349-1.138h1.724l0.942-3.127h3.057l-0.953,3.127h1.865l-0.349,1.138h-1.867l-1.271,4.173     c-0.239,0.786-0.358,1.261-0.358,1.425c0,0.15,0.032,0.263,0.099,0.339c0.063,0.074,0.162,0.112,0.292,0.112     C727.479,227.79,727.98,227.227,728.494,226.098z"
   id="path100" />
			<path
   fill="#F2F2F2"
   d="M730.359,229l3.578-11.7c0.082-0.273,0.123-0.472,0.123-0.595c0-0.362-0.421-0.543-1.262-0.543     l0.359-1.066c1.072,0,1.803-0.016,2.188-0.046c0.388-0.031,0.859-0.111,1.421-0.241h0.975l-2.502,8.203     c1.292-1.825,2.7-2.738,4.225-2.738c0.567,0,0.993,0.132,1.276,0.395c0.283,0.263,0.426,0.596,0.426,1     c0,0.191-0.036,0.427-0.107,0.708c-0.071,0.28-0.453,1.569-1.144,3.866c-0.178,0.588-0.267,0.926-0.267,1.015     c0,0.186,0.085,0.276,0.256,0.276c0.164,0,0.35-0.097,0.555-0.287s0.43-0.479,0.676-0.861h1.189     c-0.431,0.849-0.996,1.521-1.696,2.021c-0.701,0.499-1.458,0.749-2.271,0.749c-1.196,0-1.795-0.486-1.795-1.457     c0-0.389,0.283-1.452,0.852-3.188c0.314-0.95,0.472-1.531,0.472-1.743c0-0.294-0.137-0.441-0.41-0.441     c-0.438,0-0.988,0.479-1.655,1.436c-0.666,0.957-1.276,2.071-1.83,3.342L733.405,229H730.359z"
   id="path102" />
			<path
   fill="#F2F2F2"
   d="M746.273,225.832c-0.062,0.219-0.094,0.427-0.094,0.625c0,0.54,0.116,0.947,0.351,1.221     c0.23,0.273,0.58,0.41,1.045,0.41c0.473,0,0.952-0.135,1.44-0.404c0.488-0.271,0.985-0.676,1.492-1.217h1.363     c-0.547,0.807-1.309,1.484-2.281,2.031c-0.975,0.547-2.035,0.82-3.184,0.82c-0.992,0-1.808-0.219-2.446-0.656     s-0.958-1.118-0.958-2.041c0-1.497,0.729-2.929,2.193-4.296c1.463-1.367,3.065-2.051,4.81-2.051c0.759,0,1.326,0.14,1.702,0.42     c0.376,0.28,0.563,0.701,0.563,1.261c0,0.889-0.551,1.69-1.65,2.405C749.52,225.075,748.071,225.564,746.273,225.832z      M746.509,224.755c0.834-0.123,1.58-0.482,2.236-1.077c0.656-0.595,0.983-1.179,0.983-1.753c0-0.212-0.052-0.371-0.153-0.477     c-0.103-0.106-0.256-0.159-0.461-0.159c-0.486,0-0.961,0.308-1.427,0.923C747.223,222.827,746.83,223.675,746.509,224.755z"
   id="path104" />
		</g>
	</g>
</g>
<line
   fill="none"
   stroke="#FBB03B"
   stroke-width="2"
   stroke-miterlimit="10"
   x1="752"
   y1="203"
   x2="0"
   y2="203"
   id="line106" />
<line
   fill="none"
   stroke="#666666"
   stroke-miterlimit="10"
   x1="752"
   y1="201.5"
   x2="0"
   y2="201.5"
   id="line108" />
</svg>